<svg width="1194" height="1231" viewBox="0 0 1194 1231" fill="none" xmlns="http://www.w3.org/2000/svg">
<path d="M281.97 82.6034L187.684 8.77943C181.632 4.04105 172.885 5.10577 168.146 11.1575L11.6718 211.004C6.93339 217.056 7.99811 225.803 14.0499 230.541L108.337 304.365C114.388 309.104 123.135 308.039 127.874 301.987L284.348 102.141C289.087 96.0889 288.022 87.3417 281.97 82.6034Z" fill="#F5F5F5"/>
<path d="M111.546 277.58C111.386 277.74 96.08 266.014 77.355 251.349C58.6299 236.684 43.5644 224.637 43.6979 224.45C43.8315 224.263 59.1374 236.016 77.8892 250.681C96.641 265.346 111.68 277.393 111.546 277.58Z" fill="#E0E0E0"/>
<path d="M253.36 88.62C253.199 88.807 237.894 77.0537 219.169 62.3889C200.443 47.7241 185.351 35.677 185.512 35.49C185.672 35.303 200.951 47.0563 219.703 61.7211C238.455 76.3859 253.493 88.433 253.36 88.62Z" fill="#E0E0E0"/>
<path d="M75.6988 248.945C75.5118 248.785 107.913 207.114 148.035 155.881C188.156 104.647 220.851 63.1902 221.038 63.3238C221.225 63.4574 188.85 105.128 148.702 156.388C108.554 207.648 75.8858 249.078 75.6988 248.945Z" fill="#E0E0E0"/>
<path d="M165.21 76.0921L173.732 64.6594L184.416 72.673C185.167 73.2314 185.799 73.9324 186.278 74.7359C186.757 75.5394 187.073 76.4295 187.207 77.3552C187.341 78.2809 187.29 79.224 187.059 80.1303C186.828 81.0366 186.42 81.8883 185.859 82.6365C184.731 84.1502 183.048 85.1549 181.181 85.4303C179.313 85.7057 177.412 85.2294 175.895 84.1057L165.21 76.0921Z" fill="#EBEBEB"/>
<path d="M175.655 66.1018L167.134 77.5078L156.449 69.4943C154.913 68.3813 153.881 66.704 153.58 64.8308C153.28 62.9576 153.735 61.0417 154.846 59.504C155.405 58.7536 156.106 58.1209 156.909 57.6421C157.713 57.1632 158.603 56.8478 159.528 56.7138C160.454 56.5798 161.397 56.6298 162.303 56.8611C163.21 57.0924 164.062 57.5004 164.81 58.0616L175.655 66.1018Z" fill="#E0E0E0"/>
<path d="M220.397 118.244L228.918 106.811L239.603 114.824C241.119 115.957 242.124 117.644 242.399 119.516C242.674 121.388 242.197 123.293 241.072 124.815C239.935 126.326 238.246 127.326 236.375 127.596C234.503 127.866 232.6 127.385 231.082 126.257L220.397 118.244Z" fill="#EBEBEB"/>
<path d="M230.842 108.227L222.321 119.659L211.636 111.646C210.885 111.087 210.253 110.386 209.774 109.583C209.295 108.779 208.98 107.889 208.846 106.963C208.711 106.038 208.762 105.095 208.993 104.188C209.224 103.282 209.632 102.43 210.193 101.682C210.752 100.932 211.453 100.299 212.256 99.8202C213.06 99.3414 213.95 99.0259 214.876 98.8919C215.801 98.7579 216.744 98.808 217.651 99.0392C218.557 99.2705 219.409 99.6785 220.157 100.24L230.842 108.227Z" fill="#E0E0E0"/>
<path d="M141.303 107.612L149.824 96.1795L160.509 104.193C162.025 105.326 163.03 107.013 163.305 108.885C163.58 110.757 163.103 112.662 161.978 114.183C160.841 115.695 159.152 116.695 157.281 116.965C155.409 117.235 153.506 116.754 151.988 115.626L141.303 107.612Z" fill="#EBEBEB"/>
<path d="M151.721 97.5952L143.227 109.028L132.542 101.014C131.791 100.456 131.159 99.7549 130.68 98.9514C130.201 98.1479 129.886 97.2578 129.752 96.3321C129.618 95.4064 129.668 94.4634 129.899 93.5571C130.13 92.6508 130.538 91.7991 131.099 91.0508C131.658 90.3004 132.359 89.6677 133.162 89.1888C133.966 88.71 134.856 88.3946 135.782 88.2605C136.707 88.1265 137.65 88.1766 138.557 88.4079C139.463 88.6392 140.315 89.0471 141.063 89.6083L151.721 97.5952Z" fill="#E0E0E0"/>
<path d="M197.746 150.672L206.267 139.266L216.951 147.279C218.465 148.408 219.47 150.09 219.745 151.958C220.021 153.825 219.544 155.726 218.421 157.243C217.862 157.996 217.16 158.632 216.355 159.114C215.55 159.595 214.658 159.913 213.73 160.05C212.802 160.186 211.856 160.138 210.947 159.909C210.038 159.679 209.182 159.273 208.43 158.712L197.746 150.672Z" fill="#EBEBEB"/>
<path d="M208.27 140.682L199.776 152.114L189.091 144.101C188.341 143.542 187.708 142.841 187.229 142.038C186.75 141.234 186.435 140.344 186.301 139.418C186.167 138.493 186.217 137.55 186.448 136.643C186.679 135.737 187.087 134.885 187.648 134.137C188.777 132.623 190.459 131.619 192.327 131.343C194.194 131.068 196.095 131.544 197.612 132.668L208.27 140.682Z" fill="#E0E0E0"/>
<path d="M117.45 139.106L125.971 127.673L136.655 135.686C137.406 136.245 138.039 136.946 138.517 137.749C138.996 138.553 139.312 139.443 139.446 140.369C139.58 141.294 139.53 142.237 139.298 143.144C139.067 144.05 138.659 144.902 138.098 145.65C136.97 147.164 135.287 148.168 133.42 148.444C131.552 148.719 129.651 148.243 128.134 147.119L117.45 139.106Z" fill="#EBEBEB"/>
<path d="M127.814 129.169L119.293 140.601L108.608 132.588C107.855 132.031 107.22 131.332 106.739 130.529C106.258 129.727 105.94 128.837 105.803 127.911C105.667 126.986 105.714 126.042 105.944 125.135C106.173 124.227 106.579 123.374 107.139 122.624C108.265 121.134 109.932 120.144 111.78 119.87C113.628 119.595 115.511 120.056 117.022 121.155L127.814 129.169Z" fill="#E0E0E0"/>
<path d="M175.094 183.127L183.588 171.694L194.273 179.708C195.023 180.266 195.656 180.967 196.135 181.771C196.614 182.574 196.929 183.464 197.063 184.39C197.197 185.316 197.147 186.259 196.916 187.165C196.685 188.071 196.277 188.923 195.715 189.671C194.587 191.185 192.905 192.19 191.037 192.465C189.17 192.74 187.269 192.264 185.752 191.14L175.094 183.127Z" fill="#EBEBEB"/>
<path d="M185.512 173.137L176.99 184.569L166.306 176.556C165.546 176.003 164.903 175.305 164.414 174.503C163.925 173.701 163.599 172.811 163.455 171.882C163.311 170.954 163.352 170.007 163.575 169.094C163.799 168.182 164.2 167.322 164.756 166.565C165.889 165.05 167.576 164.045 169.448 163.769C171.32 163.494 173.225 163.971 174.747 165.096L185.512 173.137Z" fill="#E0E0E0"/>
<path d="M90.2568 171.48L98.7512 160.048L109.436 168.061C110.186 168.62 110.819 169.321 111.298 170.124C111.777 170.928 112.092 171.818 112.226 172.743C112.36 173.669 112.31 174.612 112.079 175.519C111.848 176.425 111.44 177.277 110.878 178.025C110.32 178.775 109.619 179.408 108.815 179.887C108.012 180.366 107.122 180.681 106.196 180.815C105.27 180.949 104.327 180.899 103.421 180.668C102.515 180.436 101.663 180.028 100.915 179.467L90.2568 171.48Z" fill="#EBEBEB"/>
<path d="M100.674 161.463L92.1533 172.896L81.4686 164.883C79.9614 163.742 78.9667 162.051 78.7015 160.179C78.4362 158.308 78.922 156.407 80.0528 154.892C81.1898 153.381 82.8787 152.381 84.7505 152.111C86.6223 151.84 88.525 152.322 90.0431 153.45L100.674 161.463Z" fill="#E0E0E0"/>
<path d="M148.435 214.834L156.956 203.401L167.641 211.415C168.394 211.971 169.029 212.671 169.51 213.473C169.991 214.276 170.309 215.165 170.446 216.091C170.582 217.017 170.535 217.961 170.306 218.868C170.076 219.775 169.67 220.628 169.11 221.378C168.552 222.129 167.851 222.761 167.047 223.24C166.244 223.719 165.354 224.034 164.428 224.168C163.502 224.302 162.559 224.252 161.653 224.021C160.747 223.79 159.895 223.382 159.147 222.821L148.435 214.834Z" fill="#EBEBEB"/>
<path d="M158.88 204.844L150.359 216.25L139.674 208.236C138.163 207.099 137.163 205.41 136.892 203.538C136.622 201.667 137.103 199.764 138.231 198.246C138.79 197.495 139.491 196.863 140.294 196.384C141.098 195.905 141.988 195.589 142.914 195.455C143.839 195.321 144.782 195.372 145.689 195.603C146.595 195.834 147.447 196.242 148.195 196.803L158.88 204.844Z" fill="#E0E0E0"/>
<path d="M66.2695 207.942L74.7105 196.509L85.3952 204.523C86.9065 205.66 87.9065 207.349 88.1768 209.221C88.4471 211.093 87.9656 212.995 86.8377 214.513C86.2793 215.264 85.5782 215.896 84.7747 216.375C83.9713 216.854 83.0811 217.17 82.1554 217.304C81.2297 217.438 80.2867 217.387 79.3804 217.156C78.4741 216.925 77.6224 216.517 76.8741 215.956L66.2695 207.942Z" fill="#EBEBEB"/>
<path d="M76.7138 197.925L68.1928 209.304L57.508 201.291C55.9978 200.167 54.9931 198.492 54.7129 196.631C54.4326 194.769 54.8997 192.873 56.0121 191.354C56.5705 190.604 57.2716 189.971 58.075 189.492C58.8785 189.013 59.7687 188.698 60.6944 188.564C61.62 188.43 62.5631 188.48 63.4694 188.711C64.3757 188.942 65.2274 189.35 65.9757 189.912L76.7138 197.925Z" fill="#E0E0E0"/>
<path d="M121.643 249.185L130.164 237.753L140.849 245.766C141.602 246.323 142.237 247.022 142.718 247.825C143.199 248.627 143.517 249.517 143.654 250.443C143.79 251.369 143.743 252.312 143.514 253.219C143.284 254.127 142.878 254.98 142.318 255.73C141.76 256.48 141.059 257.113 140.255 257.592C139.452 258.071 138.562 258.386 137.636 258.52C136.71 258.654 135.767 258.604 134.861 258.373C133.955 258.141 133.103 257.733 132.355 257.172L121.643 249.185Z" fill="#EBEBEB"/>
<path d="M132.088 239.168L123.567 250.601L112.882 242.588C111.37 241.451 110.37 239.762 110.1 237.89C109.83 236.018 110.311 234.115 111.439 232.597C111.998 231.847 112.699 231.214 113.502 230.735C114.306 230.256 115.196 229.941 116.122 229.807C117.047 229.673 117.99 229.723 118.897 229.954C119.803 230.186 120.655 230.594 121.403 231.155L132.088 239.168Z" fill="#E0E0E0"/>
<path d="M1184.48 752.785L1012.89 811.258C1011.16 811.846 1009.33 812.087 1007.5 811.968C1005.68 811.848 1003.89 811.37 1002.25 810.562C1000.61 809.753 999.15 808.629 997.945 807.254C996.74 805.88 995.817 804.281 995.23 802.549L875.534 451.181C874.941 449.45 874.695 447.619 874.811 445.793C874.927 443.967 875.401 442.181 876.207 440.539C877.014 438.897 878.136 437.429 879.51 436.221C880.884 435.013 882.483 434.087 884.215 433.498L1055.81 375.052C1059.31 373.863 1063.13 374.109 1066.44 375.737C1069.75 377.365 1072.28 380.241 1073.47 383.733L1193.17 735.129C1193.76 736.858 1194 738.687 1193.89 740.511C1193.77 742.335 1193.3 744.119 1192.49 745.759C1191.68 747.399 1190.56 748.864 1189.19 750.07C1187.81 751.276 1186.21 752.198 1184.48 752.785Z" fill="#EBEBEB"/>
<path d="M962.668 482.14C963.648 485.005 963.755 488.096 962.978 491.023C962.2 493.949 960.572 496.579 958.299 498.58C956.027 500.581 953.212 501.862 950.211 502.263C947.209 502.664 944.157 502.165 941.439 500.831C938.721 499.496 936.46 497.385 934.942 494.765C933.424 492.145 932.717 489.134 932.911 486.112C933.104 483.091 934.19 480.194 936.03 477.79C937.87 475.385 940.382 473.58 943.248 472.604C947.088 471.295 951.291 471.565 954.932 473.353C958.573 475.141 961.356 478.302 962.668 482.14Z" fill="#FAFAFA"/>
<path d="M1046.81 453.478C1047.78 456.339 1047.89 459.424 1047.11 462.343C1046.33 465.263 1044.7 467.886 1042.43 469.881C1040.16 471.876 1037.35 473.153 1034.36 473.55C1031.36 473.948 1028.32 473.449 1025.6 472.115C1022.89 470.782 1020.64 468.674 1019.12 466.059C1017.61 463.444 1016.91 460.439 1017.1 457.423C1017.29 454.407 1018.38 451.517 1020.21 449.118C1022.05 446.718 1024.56 444.917 1027.42 443.942C1029.32 443.294 1031.33 443.028 1033.33 443.156C1035.33 443.285 1037.29 443.807 1039.09 444.693C1040.89 445.578 1042.5 446.81 1043.82 448.317C1045.15 449.825 1046.16 451.578 1046.81 453.478Z" fill="#FAFAFA"/>
<path d="M989.3 560.379C990.274 563.24 990.378 566.325 989.599 569.244C988.82 572.164 987.193 574.787 984.923 576.782C982.653 578.777 979.843 580.054 976.848 580.452C973.852 580.849 970.806 580.35 968.094 579.016C965.382 577.683 963.127 575.575 961.613 572.96C960.099 570.345 959.395 567.34 959.589 564.324C959.783 561.309 960.867 558.418 962.703 556.019C964.54 553.619 967.047 551.818 969.907 550.843C971.806 550.192 973.815 549.922 975.819 550.049C977.823 550.177 979.782 550.698 981.584 551.584C983.385 552.47 984.994 553.703 986.319 555.212C987.643 556.722 988.656 558.477 989.3 560.379Z" fill="#FAFAFA"/>
<path d="M1073.47 531.717C1074.44 534.578 1074.55 537.663 1073.77 540.582C1072.99 543.502 1071.36 546.125 1069.09 548.12C1066.82 550.115 1064.01 551.392 1061.02 551.79C1058.02 552.187 1054.98 551.688 1052.26 550.354C1049.55 549.021 1047.3 546.913 1045.78 544.298C1044.27 541.683 1043.56 538.678 1043.76 535.662C1043.95 532.647 1045.04 529.756 1046.87 527.357C1048.71 524.957 1051.22 523.156 1054.08 522.181C1055.98 521.534 1057.98 521.267 1059.99 521.396C1061.99 521.524 1063.95 522.047 1065.75 522.932C1067.55 523.818 1069.16 525.049 1070.48 526.557C1071.81 528.064 1072.82 529.818 1073.47 531.717Z" fill="#FAFAFA"/>
<path d="M1015.96 638.645C1016.93 641.506 1017.04 644.591 1016.26 647.51C1015.48 650.43 1013.85 653.053 1011.58 655.048C1009.31 657.043 1006.5 658.32 1003.51 658.717C1000.51 659.115 997.464 658.616 994.753 657.282C992.041 655.949 989.786 653.841 988.272 651.226C986.758 648.611 986.053 645.606 986.247 642.59C986.441 639.575 987.525 636.684 989.362 634.285C991.198 631.885 993.705 630.084 996.565 629.109C998.465 628.462 1000.47 628.195 1002.48 628.323C1004.48 628.452 1006.44 628.974 1008.24 629.86C1010.04 630.746 1011.65 631.977 1012.97 633.485C1014.3 634.992 1015.31 636.746 1015.96 638.645Z" fill="#FAFAFA"/>
<path d="M1100.13 609.983C1101.1 612.844 1101.21 615.929 1100.43 618.848C1099.65 621.768 1098.02 624.391 1095.75 626.386C1093.48 628.381 1090.67 629.658 1087.68 630.055C1084.68 630.453 1081.63 629.954 1078.92 628.62C1076.21 627.287 1073.95 625.179 1072.44 622.564C1070.93 619.949 1070.22 616.944 1070.42 613.928C1070.61 610.913 1071.69 608.022 1073.53 605.623C1075.37 603.223 1077.87 601.422 1080.73 600.447C1082.63 599.8 1084.64 599.533 1086.65 599.662C1088.65 599.79 1090.61 600.312 1092.41 601.198C1094.21 602.084 1095.82 603.315 1097.14 604.823C1098.47 606.33 1099.48 608.084 1100.13 609.983Z" fill="#FAFAFA"/>
<path d="M1042.62 716.831C1043.59 719.691 1043.7 722.776 1042.92 725.696C1042.14 728.616 1040.51 731.239 1038.24 733.234C1035.97 735.228 1033.16 736.506 1030.16 736.903C1027.17 737.301 1024.12 736.802 1021.41 735.468C1018.7 734.135 1016.44 732.027 1014.93 729.412C1013.42 726.797 1012.71 723.791 1012.91 720.776C1013.1 717.76 1014.18 714.87 1016.02 712.47C1017.86 710.071 1020.36 708.27 1023.22 707.295C1025.12 706.647 1027.13 706.38 1029.13 706.509C1031.14 706.638 1033.09 707.16 1034.9 708.046C1036.7 708.931 1038.31 710.163 1039.63 711.67C1040.95 713.178 1041.97 714.931 1042.62 716.831Z" fill="#FAFAFA"/>
<path d="M1126.79 688.222C1127.76 691.083 1127.86 694.168 1127.09 697.088C1126.31 700.007 1124.68 702.63 1122.41 704.625C1120.14 706.62 1117.33 707.897 1114.33 708.295C1111.34 708.692 1108.29 708.193 1105.58 706.86C1102.87 705.526 1100.61 703.419 1099.1 700.803C1097.59 698.188 1096.88 695.183 1097.08 692.167C1097.27 689.152 1098.35 686.261 1100.19 683.862C1102.03 681.462 1104.53 679.661 1107.39 678.686C1109.29 678.039 1111.3 677.772 1113.3 677.901C1115.31 678.03 1117.26 678.552 1119.06 679.437C1120.87 680.323 1122.47 681.554 1123.8 683.062C1125.12 684.569 1126.14 686.323 1126.79 688.222Z" fill="#FAFAFA"/>
<path d="M954.467 473.939C952.838 478.46 950.837 482.838 948.484 487.028C946.502 491.41 944.143 495.611 941.432 499.583C943.061 495.062 945.063 490.684 947.416 486.494C949.392 482.11 951.752 477.909 954.467 473.939Z" fill="#E0E0E0"/>
<path d="M1036.87 445.171C1035.26 449.701 1033.26 454.088 1030.92 458.286C1028.92 462.658 1026.56 466.857 1023.86 470.841C1025.49 466.313 1027.48 461.927 1029.82 457.725C1031.83 453.357 1034.19 449.159 1036.87 445.171Z" fill="#E0E0E0"/>
<path d="M981.901 552.179C980.497 556.902 978.71 561.503 976.558 565.935C974.803 570.561 972.658 575.029 970.147 579.291C971.561 574.571 973.348 569.972 975.49 565.535C977.252 560.912 979.396 556.445 981.901 552.179Z" fill="#E0E0E0"/>
<path d="M1065.03 523.33C1063.91 527.906 1062.39 532.375 1060.49 536.686C1058.96 541.157 1057.06 545.491 1054.8 549.641C1055.92 545.066 1057.44 540.597 1059.34 536.285C1060.88 531.819 1062.78 527.486 1065.03 523.33Z" fill="#E0E0E0"/>
<path d="M1006.05 630.097C1003.24 638.647 999.662 646.926 995.363 654.833C998.174 646.283 1001.75 638.004 1006.05 630.097Z" fill="#E0E0E0"/>
<path d="M1092.25 602.744C1088.72 611.175 1084.45 619.274 1079.48 626.945C1081.05 622.653 1083.01 618.514 1085.33 614.578C1087.29 610.444 1089.61 606.485 1092.25 602.744Z" fill="#E0E0E0"/>
<path d="M1034.98 709.458C1033.23 713.911 1031.11 718.209 1028.65 722.307C1026.53 726.597 1024.06 730.698 1021.25 734.568C1025.1 725.823 1029.7 717.423 1034.98 709.458Z" fill="#E0E0E0"/>
<path d="M1118.96 678.259C1117.56 683.279 1115.78 688.182 1113.62 692.924C1111.84 697.815 1109.68 702.558 1107.15 707.108C1108.55 702.088 1110.33 697.184 1112.5 692.443C1114.27 687.549 1116.43 682.806 1118.96 678.259Z" fill="#E0E0E0"/>
<path d="M1149.65 730.187C1149.65 730.507 1123.98 739.563 1092.09 750.434C1060.19 761.306 1034.2 769.854 1034.1 769.534C1033.99 769.213 1059.77 760.158 1091.69 749.286C1123.61 738.414 1149.54 729.813 1149.65 730.187Z" fill="#E0E0E0"/>
<path d="M1035.27 415.547C1035.27 415.841 1009.6 424.923 977.68 435.795C945.759 446.667 919.822 455.214 919.715 454.894C919.608 454.573 945.385 445.518 977.306 434.646C1009.23 423.774 1035.16 415.227 1035.27 415.547Z" fill="#E0E0E0"/>
<path d="M979.149 450.914C979.001 450.953 978.844 450.953 978.695 450.914H978.535L979.71 450.54C979.71 450.727 979.71 450.994 979.283 451.101C978.856 451.208 978.642 451.101 978.562 450.914L979.737 450.54C979.737 450.54 979.737 450.673 979.737 450.7C979.661 450.777 979.569 450.837 979.467 450.874C979.366 450.911 979.257 450.925 979.149 450.914Z" fill="#E0E0E0"/>
<path d="M1087.95 750.461C1087.63 750.461 1063.27 679.888 1033.51 592.594C1003.75 505.299 979.924 434.406 980.245 434.299C980.565 434.192 1004.93 504.872 1034.66 592.193C1064.39 679.514 1088.27 750.354 1087.95 750.461Z" fill="#E0E0E0"/>
<path d="M452.068 1211.21L461.231 1073.63L730.131 1091.53C734.571 1091.83 738.711 1093.88 741.641 1097.22C744.57 1100.57 746.05 1104.95 745.755 1109.39L738.822 1213.49C738.526 1217.93 736.479 1222.07 733.131 1225C729.783 1227.93 725.408 1229.41 720.969 1229.12L452.068 1211.21Z" fill="#F5F5F5"/>
<path d="M536.201 1129.95L530.443 1216.41L654.059 1224.65L659.817 1138.18L536.201 1129.95Z" fill="#E0E0E0"/>
<path d="M436.198 1065.65L425.932 1219.81C425.726 1222.9 428.065 1225.57 431.156 1225.78L467.724 1228.21C470.815 1228.42 473.488 1226.08 473.694 1222.99L483.96 1068.83C484.166 1065.74 481.827 1063.06 478.736 1062.86L442.168 1060.42C439.077 1060.22 436.404 1062.56 436.198 1065.65Z" fill="#EBEBEB"/>
<path d="M474.214 1215.44C466.19 1215.64 458.162 1215.36 450.173 1214.58C442.191 1214.29 434.234 1213.51 426.346 1212.26C434.37 1212.05 442.398 1212.33 450.387 1213.11C458.369 1213.4 466.326 1214.18 474.214 1215.44Z" fill="#E0E0E0"/>
<path d="M475.095 1202.08C467.116 1202.3 459.131 1202.01 451.188 1201.22C443.206 1200.93 435.249 1200.16 427.361 1198.9C435.34 1198.71 443.323 1199 451.268 1199.76C459.25 1200.05 467.208 1200.82 475.095 1202.08Z" fill="#E0E0E0"/>
<path d="M476.004 1188.75C467.98 1188.96 459.951 1188.67 451.963 1187.9C443.981 1187.6 436.024 1186.83 428.136 1185.57C436.159 1185.36 444.188 1185.65 452.177 1186.43C460.159 1186.72 468.115 1187.5 476.004 1188.75Z" fill="#E0E0E0"/>
<path d="M476.885 1175.39C468.862 1175.6 460.833 1175.32 452.844 1174.54C444.862 1174.25 436.905 1173.47 429.017 1172.22C437.041 1172.02 445.069 1172.31 453.058 1173.07C461.04 1173.36 468.997 1174.14 476.885 1175.39Z" fill="#E0E0E0"/>
<path d="M477.767 1162.07C469.788 1162.27 461.803 1161.98 453.859 1161.21C445.869 1160.92 437.903 1160.14 430.006 1158.89C438.029 1158.68 446.058 1158.96 454.046 1159.74C461.993 1160.04 469.914 1160.81 477.767 1162.07Z" fill="#E0E0E0"/>
<path d="M478.675 1148.71C470.651 1148.92 462.622 1148.63 454.634 1147.85C446.652 1147.56 438.695 1146.79 430.807 1145.53C438.83 1145.34 446.858 1145.62 454.848 1146.39C462.83 1146.68 470.787 1147.45 478.675 1148.71Z" fill="#E0E0E0"/>
<path d="M479.556 1135.38C471.533 1135.59 463.504 1135.3 455.516 1134.53C447.533 1134.23 439.576 1133.46 431.689 1132.2C439.712 1131.99 447.741 1132.28 455.729 1133.06C463.711 1133.35 471.668 1134.12 479.556 1135.38Z" fill="#E0E0E0"/>
<path d="M480.438 1122.02C472.414 1122.23 464.386 1121.95 456.397 1121.17C448.415 1120.88 440.458 1120.1 432.57 1118.85C440.593 1118.65 448.621 1118.94 456.611 1119.7C464.593 1119.99 472.55 1120.77 480.438 1122.02Z" fill="#E0E0E0"/>
<path d="M481.319 1108.69C473.34 1108.9 465.356 1108.61 457.412 1107.84C449.43 1107.55 441.473 1106.77 433.585 1105.52C441.609 1105.31 449.637 1105.59 457.626 1106.37C465.563 1106.67 473.476 1107.44 481.319 1108.69Z" fill="#E0E0E0"/>
<path d="M482.227 1095.34C474.204 1095.55 466.175 1095.26 458.187 1094.48C450.205 1094.19 442.248 1093.42 434.36 1092.16C442.383 1091.97 450.411 1092.25 458.4 1093.01C466.382 1093.31 474.339 1094.08 482.227 1095.34Z" fill="#E0E0E0"/>
<path d="M483.109 1082.01C475.085 1082.22 467.057 1081.93 459.068 1081.15C451.086 1080.86 443.129 1080.09 435.241 1078.83C443.265 1078.62 451.294 1078.91 459.282 1079.69C467.264 1079.98 475.221 1080.75 483.109 1082.01Z" fill="#E0E0E0"/>
<path d="M483.99 1068.65C476.011 1068.86 468.027 1068.57 460.083 1067.8C452.092 1067.51 444.126 1066.73 436.23 1065.47C444.253 1065.27 452.282 1065.55 460.27 1066.33C468.217 1066.62 476.138 1067.4 483.99 1068.65Z" fill="#E0E0E0"/>
<path d="M712.444 1202.13L704.688 1201.62C702.568 1201.48 700.59 1200.5 699.19 1198.9C697.791 1197.3 697.084 1195.21 697.225 1193.09L698.982 1166.7L722.97 1168.3L721.213 1194.69C721.142 1195.76 720.857 1196.8 720.374 1197.76C719.892 1198.72 719.222 1199.57 718.404 1200.26C717.586 1200.96 716.638 1201.48 715.614 1201.8C714.59 1202.12 713.512 1202.24 712.444 1202.13Z" fill="#EBEBEB"/>
<path d="M706.479 1142.03L714.492 1142.59C716.618 1142.74 718.597 1143.73 719.995 1145.34C721.392 1146.94 722.094 1149.04 721.945 1151.17L720.094 1177.61L696.053 1175.93L697.904 1149.48C698.053 1147.36 699.04 1145.38 700.648 1143.98C702.256 1142.58 704.354 1141.88 706.479 1142.03Z" fill="#E0E0E0"/>
<path d="M656.195 1117.52L654.174 1125.06C653.622 1127.13 652.273 1128.88 650.424 1129.95C648.576 1131.02 646.379 1131.31 644.318 1130.75L618.666 1123.88L624.917 1100.56L650.568 1107.43C651.609 1107.71 652.583 1108.2 653.433 1108.86C654.283 1109.52 654.992 1110.35 655.517 1111.29C656.041 1112.23 656.372 1113.27 656.488 1114.34C656.605 1115.41 656.505 1116.49 656.195 1117.52Z" fill="#EBEBEB"/>
<path d="M597.017 1107.11L599.027 1099.6C599.577 1097.54 600.92 1095.79 602.76 1094.73C604.601 1093.67 606.788 1093.38 608.841 1093.93L634.386 1100.77L628.168 1123.99L602.623 1117.15C601.586 1116.87 600.616 1116.39 599.769 1115.73C598.923 1115.07 598.217 1114.25 597.694 1113.32C597.172 1112.38 596.842 1111.35 596.726 1110.28C596.609 1109.21 596.708 1108.13 597.017 1107.11Z" fill="#E0E0E0"/>
<path d="M731.254 1105.23L733.353 1112.69C733.926 1114.73 733.666 1116.91 732.629 1118.76C731.592 1120.61 729.864 1121.97 727.823 1122.55L702.436 1129.69L695.945 1106.61L721.332 1099.47C722.362 1099.18 723.44 1099.1 724.501 1099.23C725.563 1099.36 726.586 1099.71 727.512 1100.25C728.437 1100.78 729.245 1101.5 729.888 1102.36C730.531 1103.21 730.995 1104.19 731.254 1105.23Z" fill="#EBEBEB"/>
<path d="M658.509 1129.67L656.41 1122.21C655.836 1120.17 656.097 1117.98 657.134 1116.13C658.171 1114.28 659.899 1112.92 661.94 1112.35L687.429 1105.18L693.92 1128.26L668.533 1135.4C667.499 1135.71 666.413 1135.8 665.341 1135.68C664.269 1135.55 663.234 1135.21 662.297 1134.67C661.36 1134.14 660.542 1133.42 659.891 1132.56C659.24 1131.7 658.77 1130.72 658.509 1129.67Z" fill="#E0E0E0"/>
<path d="M669.612 1200.8L662.415 1197.86C660.447 1197.06 658.878 1195.51 658.054 1193.55C657.23 1191.59 657.218 1189.38 658.021 1187.41L668.009 1162.93L690.269 1172.01L680.281 1196.49C679.479 1198.46 677.927 1200.03 675.968 1200.85C674.009 1201.68 671.803 1201.69 669.835 1200.89L669.612 1200.8Z" fill="#EBEBEB"/>
<path d="M686.963 1137.64L694.16 1140.58C696.128 1141.38 697.697 1142.93 698.521 1144.89C699.345 1146.85 699.357 1149.05 698.554 1151.02L688.566 1175.51L666.306 1166.43L676.294 1141.94C676.698 1140.95 677.299 1140.05 678.059 1139.29C678.819 1138.53 679.723 1137.94 680.718 1137.53C681.713 1137.13 682.778 1136.94 683.851 1136.95C684.924 1136.97 685.982 1137.21 686.963 1137.64Z" fill="#E0E0E0"/>
<path d="M1042.32 150.538L1060.38 173.51C1060.71 173.942 1060.86 174.485 1060.79 175.023C1060.73 175.562 1060.46 176.054 1060.03 176.395L1036.82 194.426C1035.1 195.771 1033.12 196.763 1031.01 197.345C1028.9 197.926 1026.7 198.087 1024.53 197.816C1022.36 197.546 1020.26 196.85 1018.36 195.769C1016.46 194.687 1014.79 193.242 1013.45 191.514C1012.1 189.787 1011.11 187.811 1010.53 185.7C1009.94 183.589 1009.78 181.384 1010.05 179.211C1010.33 177.038 1011.02 174.94 1012.1 173.036C1013.18 171.132 1014.63 169.46 1016.36 168.115L1039.57 150.084C1040.01 149.806 1040.53 149.699 1041.03 149.783C1041.54 149.867 1042 150.136 1042.32 150.538Z" fill="#EBEBEB"/>
<path d="M1055.84 176.93L1037.89 153.877C1037.72 153.663 1037.6 153.419 1037.53 153.158C1037.46 152.897 1037.44 152.625 1037.48 152.357C1037.51 152.089 1037.6 151.831 1037.73 151.597C1037.87 151.363 1038.05 151.157 1038.26 150.992L1061.45 132.962C1063.17 131.617 1065.15 130.625 1067.26 130.043C1069.37 129.461 1071.57 129.301 1073.74 129.571C1075.91 129.842 1078.01 130.538 1079.91 131.619C1081.81 132.7 1083.48 134.146 1084.82 135.873C1086.17 137.601 1087.16 139.576 1087.74 141.687C1088.32 143.798 1088.48 146.003 1088.21 148.177C1087.94 150.35 1087.25 152.448 1086.17 154.352C1085.08 156.256 1083.64 157.928 1081.91 159.273L1058.72 177.25C1058.3 177.589 1057.76 177.746 1057.22 177.686C1056.67 177.626 1056.18 177.354 1055.84 176.93Z" fill="#E0E0E0"/>
<path d="M14.1278 697.492L41.6144 707.482C42.1308 707.674 42.55 708.063 42.7803 708.564C43.0106 709.064 43.0332 709.636 42.8431 710.153L32.7995 737.746C32.0536 739.806 30.909 741.699 29.431 743.317C27.953 744.934 26.1706 746.244 24.1859 747.172C22.2011 748.1 20.0529 748.627 17.8641 748.724C15.6753 748.821 13.4889 748.486 11.4299 747.737C7.27381 746.224 3.88756 743.125 2.01453 739.118C0.141496 735.112 -0.0652519 730.526 1.43967 726.367L11.4834 698.774C11.5704 698.514 11.7083 698.275 11.8891 698.069C12.0699 697.864 12.2898 697.696 12.5361 697.577C12.7824 697.457 13.0501 697.388 13.3234 697.374C13.5967 697.359 13.8702 697.399 14.1278 697.492Z" fill="#EBEBEB"/>
<path d="M39.6911 712.744L12.2313 702.754C11.9712 702.665 11.7318 702.524 11.5278 702.339C11.3238 702.155 11.1594 701.931 11.0445 701.681C10.9296 701.432 10.8666 701.161 10.8594 700.886C10.8522 700.611 10.9009 700.338 11.0025 700.083L21.0462 672.462C21.7917 670.403 22.9366 668.51 24.4151 666.894C25.8936 665.277 27.6767 663.969 29.6621 663.043C31.6474 662.118 33.796 661.593 35.9846 661.5C38.1732 661.406 40.3587 661.746 42.4157 662.499C44.4756 663.244 46.3679 664.389 47.9843 665.868C49.6006 667.346 50.9092 669.129 51.8349 671.115C52.7606 673.1 53.2852 675.249 53.3786 677.437C53.472 679.626 53.1324 681.811 52.3793 683.868L42.3356 711.489C42.1484 712.003 41.766 712.424 41.271 712.659C40.776 712.894 40.2085 712.924 39.6911 712.744Z" fill="#E0E0E0"/>
<path d="M1167.23 1226.87C1167.23 1227.27 911.221 1227.56 595.593 1227.56C279.965 1227.56 23.9578 1227.27 23.9578 1226.87C23.9578 1226.47 279.911 1226.17 595.726 1226.17C911.541 1226.17 1167.23 1226.49 1167.23 1226.87Z" fill="#263238"/>
<path d="M948.965 46.8158H305.288C290.388 46.8158 278.309 58.8948 278.309 73.7949V941.264C278.309 956.165 290.388 968.244 305.288 968.244H948.965C963.865 968.244 975.944 956.165 975.944 941.264V73.7949C975.944 58.8948 963.865 46.8158 948.965 46.8158Z" fill="#455A64"/>
<path d="M929.198 90.3563H325.001V904.936H929.198V90.3563Z" fill="white"/>
<path d="M929.225 904.936C929.225 899.38 928.958 572.667 928.584 90.2227L929.225 90.8371H325.081L325.776 90.1426C325.776 393.937 325.776 675.427 325.776 904.856L325.188 904.268L929.412 904.856L325.188 905.417H324.627V904.856C324.627 675.561 324.627 394.071 324.494 90.1426V89.4481H325.268H929.412H930.026V90.0892C929.492 572.587 929.225 899.38 929.225 904.936Z" fill="#263238"/>
<path d="M452.203 227.068L438.126 205.885H422.553V227.068H405.644V151.046H437.271C443.078 150.908 448.843 152.057 454.153 154.411C458.672 156.426 462.499 159.723 465.159 163.894C467.828 168.31 469.173 173.401 469.032 178.559C469.195 183.744 467.829 188.863 465.105 193.277C462.421 197.426 458.562 200.681 454.02 202.626L470.421 227.068H452.203ZM447.929 168.809C444.606 166.305 440.487 165.09 436.336 165.39H422.553V191.888H436.336C440.498 192.175 444.621 190.931 447.929 188.389C450.483 185.77 451.912 182.257 451.912 178.599C451.912 174.941 450.483 171.428 447.929 168.809Z" fill="#025464"/>
<path d="M489.199 279.61L472.478 254.715L456.05 279.717H437.645L463.289 243.095L438.927 207.702H457.145L473.172 231.048L488.745 207.595H506.054L482.014 242.32L507.844 279.557L489.199 279.61Z" fill="#025464"/>
<path d="M719.403 169.21H615.707V194.88H719.403V169.21Z" fill="#E0E0E0"/>
<path d="M871.474 185.424C871.474 185.825 843.105 186.119 808.113 186.119C773.12 186.119 744.779 185.825 744.779 185.424C744.779 185.023 773.12 184.729 808.113 184.729C843.105 184.729 871.474 185.05 871.474 185.424Z" fill="#263238"/>
<path d="M869.096 216.223C869.096 216.597 812.36 216.917 742.402 216.917C672.443 216.917 615.707 216.597 615.707 216.223C615.707 215.849 672.416 215.502 742.402 215.502C812.387 215.502 869.096 215.822 869.096 216.223Z" fill="#263238"/>
<path d="M869.096 246.381C869.096 246.755 812.36 247.075 742.402 247.075C672.443 247.075 615.707 246.755 615.707 246.381C615.707 246.007 672.416 245.686 742.402 245.686C812.387 245.686 869.096 245.98 869.096 246.381Z" fill="#263238"/>
<path d="M908.63 326.837C908.63 327.211 782.576 327.531 627.14 327.531C471.703 327.531 345.623 327.211 345.623 326.837C345.623 326.463 471.623 326.116 627.14 326.116C782.656 326.116 908.63 326.383 908.63 326.837Z" fill="#263238"/>
<path d="M908.63 782.168C908.63 782.542 782.576 782.863 627.14 782.863C471.703 782.863 345.623 782.542 345.623 782.168C345.623 781.794 471.623 781.474 627.14 781.474C782.656 781.474 908.63 781.768 908.63 782.168Z" fill="#263238"/>
<path d="M565.702 372.862H391.995V405.45H565.702V372.862Z" fill="#E0E0E0"/>
<path d="M467.189 828.647H391.995V861.236H467.189V828.647Z" fill="#E0E0E0"/>
<path d="M719.67 828.647H644.476V861.236H719.67V828.647Z" fill="#E0E0E0"/>
<path d="M593.215 851.219C593.215 851.619 569.736 851.913 540.78 851.913C511.824 851.913 488.318 851.619 488.318 851.219C488.318 850.818 511.798 850.524 540.78 850.524C569.762 850.524 593.215 850.845 593.215 851.219Z" fill="#263238"/>
<path d="M863.22 851.219C863.22 851.619 839.74 851.913 810.784 851.913C781.828 851.913 758.322 851.619 758.322 851.219C758.322 850.818 781.802 850.524 810.784 850.524C839.767 850.524 863.22 850.845 863.22 851.219Z" fill="#263238"/>
<path d="M856.996 454.52C856.996 454.894 754.075 455.214 627.273 455.214C500.472 455.214 397.551 454.894 397.551 454.52C397.551 454.146 500.418 453.825 627.273 453.825C754.128 453.825 856.996 454.119 856.996 454.52Z" fill="#263238"/>
<path d="M865.917 491.703C865.917 492.104 761.02 492.397 631.654 492.397C502.288 492.397 397.364 492.104 397.364 491.703C397.364 491.302 502.235 491.008 631.654 491.008C761.073 491.008 865.917 491.329 865.917 491.703Z" fill="#263238"/>
<path d="M624.495 528.913C624.495 529.287 572.434 529.607 508.245 529.607C444.056 529.607 391.995 529.287 391.995 528.913C391.995 528.539 444.029 528.218 508.245 528.218C572.46 528.218 624.495 528.512 624.495 528.913Z" fill="#263238"/>
<path d="M862.472 663.808C862.472 663.808 861.964 664.021 860.922 664.342L856.381 665.731C850.513 667.477 844.546 668.868 838.511 669.898C834.153 670.665 829.74 671.085 825.315 671.154C820.022 671.258 814.742 670.601 809.635 669.204C803.754 667.522 798.335 664.516 793.795 660.415C788.676 655.739 785.311 649.452 784.259 642.598C783.71 638.896 784.162 635.115 785.568 631.647C787.143 628.04 789.72 624.962 792.994 622.778C794.686 621.606 796.594 620.783 798.607 620.356C800.621 619.93 802.699 619.909 804.72 620.294C806.768 620.797 808.693 621.706 810.383 622.965C812.033 624.345 813.41 626.021 814.444 627.907C816.408 631.814 817.389 636.142 817.302 640.515C817.321 644.989 816.505 649.428 814.898 653.604C811.411 662.248 805.663 669.795 798.256 675.454C790.498 681.485 781.282 685.355 771.544 686.673C766.552 687.385 761.479 687.322 756.505 686.486C753.979 686.079 751.488 685.481 749.053 684.697C746.619 683.801 744.245 682.748 741.947 681.545C737.364 678.988 733.282 675.621 729.9 671.608C726.404 667.51 723.957 662.624 722.768 657.37C721.463 651.973 722.136 646.287 724.665 641.343C727.175 636.34 731.336 632.358 736.445 630.071C739.03 628.9 741.87 628.404 744.699 628.628C747.503 628.907 750.184 629.921 752.472 631.566C756.815 635.01 759.812 639.869 760.94 645.296C762.168 650.492 762.457 655.866 761.794 661.163C761.272 666.352 760.115 671.456 758.349 676.362C755.071 686.043 749.282 694.681 741.573 701.391C734.081 707.819 724.711 711.652 714.862 712.317C705.763 713.243 696.632 710.9 689.104 705.707C681.576 700.514 676.143 692.81 673.779 683.975C671.361 676.089 671.681 667.616 674.687 659.935C676.101 656.27 678.528 653.083 681.685 650.746C683.264 649.591 685.096 648.831 687.028 648.529C688.927 648.248 690.865 648.615 692.53 649.57C694.055 650.563 695.33 651.894 696.257 653.46C697.183 655.026 697.736 656.785 697.873 658.599C698.319 661.918 698.184 665.29 697.472 668.562C696.417 674.532 694.622 680.346 692.13 685.872C689.971 690.67 687.283 695.213 684.116 699.415C681.471 702.975 678.482 706.267 675.194 709.245C670.711 713.428 665.657 716.954 660.182 719.716C658.779 720.464 657.334 721.133 655.855 721.719L654.332 722.307L655.802 721.586C656.763 721.105 658.259 720.517 660.075 719.475C665.457 716.593 670.425 712.999 674.847 708.791C681.862 702.181 687.523 694.27 691.515 685.498C694.009 680.038 695.804 674.285 696.858 668.375C697.51 665.185 697.627 661.908 697.205 658.679C697.075 657.017 696.57 655.406 695.728 653.967C694.886 652.528 693.729 651.299 692.343 650.372C690.863 649.526 689.14 649.206 687.455 649.463C685.72 649.774 684.082 650.487 682.674 651.547C679.678 653.767 677.379 656.798 676.049 660.282C673.156 667.752 672.883 675.983 675.274 683.628C677.596 692.176 682.876 699.623 690.174 704.642C697.473 709.661 706.316 711.926 715.129 711.034C724.68 710.345 733.756 706.599 741.013 700.35C748.537 693.789 754.18 685.344 757.36 675.882C759.077 671.067 760.207 666.062 760.726 660.976C761.363 655.838 761.074 650.627 759.871 645.59C758.813 640.476 755.973 635.904 751.858 632.688C749.756 631.175 747.289 630.251 744.711 630.012C742.132 629.772 739.537 630.226 737.193 631.326C732.369 633.501 728.443 637.276 726.081 642.011C723.71 646.651 723.084 651.987 724.318 657.05C725.608 662.005 727.918 666.636 731.101 670.647C734.284 674.658 738.27 677.96 742.802 680.342C745.025 681.499 747.318 682.516 749.667 683.388C756.718 685.685 764.198 686.352 771.544 685.338C776.312 684.674 780.973 683.39 785.408 681.518C789.741 679.669 793.825 677.282 797.562 674.412C804.805 668.879 810.424 661.498 813.829 653.043C815.393 649.014 816.199 644.73 816.207 640.408C816.3 636.236 815.384 632.103 813.535 628.361C812.569 626.613 811.303 625.049 809.796 623.74C808.257 622.507 806.486 621.599 804.587 621.069C802.709 620.709 800.778 620.726 798.907 621.121C797.035 621.515 795.261 622.278 793.688 623.366C790.578 625.412 788.128 628.316 786.636 631.727C785.28 635.03 784.828 638.635 785.328 642.171C786.342 648.807 789.582 654.902 794.517 659.454C798.945 663.485 804.235 666.454 809.983 668.135C815.005 669.548 820.205 670.232 825.422 670.165C829.817 670.136 834.202 669.761 838.538 669.043C844.559 668.057 850.524 666.756 856.408 665.143L861.002 663.888L862.472 663.808Z" fill="#263238"/>
<path d="M727.924 38.9893H526.302V116.08H727.924V38.9893Z" fill="#E0E0E0"/>
<path d="M727.924 116.053C727.924 116.053 727.924 115.572 727.924 114.664C727.924 113.756 727.924 112.394 727.924 110.657C727.924 107.105 727.924 101.976 727.924 95.3514C727.924 81.9954 727.763 62.843 727.657 38.9893L728.137 39.4701L526.543 39.6838L527.237 38.9893C527.237 65.9149 527.237 91.959 527.237 116.053L526.569 115.385L670.814 115.706L712.832 115.893H724.131H727.069H728.084C727.773 115.919 727.46 115.919 727.149 115.893H724.291H713.152L671.268 116.08L526.462 116.374H525.795V115.706C525.795 91.6652 525.795 65.5676 525.795 38.642L526.489 37.9475L728.084 38.1612H728.565V38.642C728.565 62.6827 728.378 81.9153 728.298 95.298C728.298 101.869 728.298 106.971 728.298 110.497C728.298 112.18 728.298 113.489 728.298 114.424C728.298 115.359 727.924 116.053 727.924 116.053Z" fill="#263238"/>
<path d="M969.399 1225.69H838.832C836.03 1225.69 833.34 1224.59 831.342 1222.63C829.343 1220.67 828.196 1218 828.147 1215.2L824.995 863.052H976.772L979.924 1214.98C979.931 1217.79 978.831 1220.49 976.861 1222.5C974.891 1224.5 972.21 1225.65 969.399 1225.69Z" fill="#025464"/>
<g opacity="0.3">
<path d="M950.194 941.211V1212.31C950.194 1212.31 971.563 1219.42 972.605 1200.72C973.647 1182.02 973.086 941.158 973.086 941.158L950.194 941.211Z" fill="white"/>
</g>
<path d="M962.454 845.182H839.58C837.454 845.182 835.416 846.026 833.913 847.529C832.41 849.032 831.566 851.07 831.566 853.195V861.075H970.468V853.062C970.433 850.96 969.573 848.955 968.074 847.481C966.575 846.007 964.557 845.181 962.454 845.182Z" fill="#FAFAFA"/>
<path d="M962.454 845.182C962.897 845.117 963.347 845.117 963.79 845.182C965.108 845.346 966.361 845.853 967.423 846.651C968.304 847.303 969.045 848.127 969.6 849.073C970.155 850.018 970.514 851.066 970.655 852.154C970.655 854.825 970.655 857.496 970.655 860.915V861.236H970.308C944.851 861.423 895.675 861.583 839.419 861.583H830.738V853.436C830.696 852.109 830.956 850.79 831.497 849.578C832.039 848.366 832.848 847.292 833.863 846.437C834.88 845.591 836.077 844.988 837.362 844.674C838.596 844.453 839.85 844.372 841.102 844.434H848.207H875.213L920.623 844.594L951.155 844.808L920.623 845.021L875.213 845.182H848.207H841.102C839.958 845.114 838.81 845.186 837.683 845.395C836.608 845.666 835.606 846.167 834.745 846.865C830.898 849.776 832.447 855.386 832.073 860.221L831.379 859.526H839.393C895.728 859.526 944.905 859.66 970.281 859.873L969.934 860.221C969.934 856.935 969.934 853.97 969.934 851.539C969.831 850.499 969.52 849.49 969.02 848.572C968.52 847.655 967.841 846.847 967.022 846.197C965.614 845.465 964.039 845.115 962.454 845.182Z" fill="#263238"/>
<path d="M985.774 857.256H816.126C812.232 857.256 809.075 860.413 809.075 864.307V934.106C809.075 938 812.232 941.158 816.126 941.158H985.774C989.669 941.158 992.826 938 992.826 934.106V864.307C992.826 860.413 989.669 857.256 985.774 857.256Z" fill="#FAFAFA"/>
<path d="M985.774 941.211C985.774 941.211 986.255 941.211 987.11 940.997C988.391 940.729 989.568 940.099 990.502 939.181C993.627 936.83 992.372 931.167 992.559 924.676C992.559 911.32 992.425 892.221 992.345 868.581C992.345 867.112 992.345 865.616 992.345 864.094C992.299 862.667 991.783 861.296 990.876 860.194C989.93 859.071 988.646 858.284 987.216 857.95C985.673 857.783 984.119 857.738 982.568 857.816H962.428H917.979H816.18C815.161 857.81 814.155 858.049 813.248 858.514C812.341 858.979 811.56 859.656 810.971 860.488C810.399 861.278 810.024 862.194 809.876 863.159C809.821 864.244 809.821 865.332 809.876 866.418V905.684C809.876 914.179 809.876 922.539 809.876 930.74V933.812C809.88 934.734 810.08 935.645 810.464 936.483C810.844 937.315 811.398 938.056 812.089 938.655C812.781 939.254 813.593 939.698 814.47 939.956C815.382 940.21 816.332 940.3 817.275 940.223H826.143L909.298 940.356L965.393 940.597H980.619L965.393 940.73L909.298 940.944L826.143 941.104H817.275C816.214 941.18 815.147 941.071 814.123 940.784C813.062 940.477 812.079 939.947 811.24 939.228C810.401 938.509 809.727 937.619 809.262 936.617C808.808 935.599 808.571 934.498 808.567 933.384V930.313C808.567 922.121 808.567 913.769 808.567 905.257C808.567 896.736 808.567 888.054 808.567 879.266V865.91C808.567 864.762 808.567 863.72 808.567 862.464C808.75 861.234 809.216 860.064 809.929 859.045C810.645 858.034 811.595 857.21 812.697 856.642C813.798 856.075 815.021 855.781 816.26 855.786H918.059H962.508H982.649C984.28 855.704 985.916 855.766 987.537 855.973C989.192 856.391 990.671 857.327 991.757 858.645C992.791 859.938 993.381 861.531 993.44 863.186V867.7C993.44 891.313 993.253 910.439 993.2 923.795C993.2 927.08 993.2 930.019 993.2 932.583C993.281 933.685 993.112 934.791 992.705 935.818C992.297 936.845 991.663 937.766 990.849 938.513C989.865 939.435 988.628 940.039 987.297 940.249C986.861 940.671 986.342 940.999 985.774 941.211Z" fill="#263238"/>
<path d="M819.759 939.769C819.359 939.769 819.065 921.898 819.065 899.888C819.065 877.877 819.359 859.98 819.759 859.98C820.16 859.98 820.454 877.85 820.454 899.888C820.454 921.925 820.133 939.769 819.759 939.769Z" fill="#263238"/>
<path d="M833.649 939.769C833.249 939.769 832.955 921.898 832.955 899.888C832.955 877.877 833.249 859.98 833.649 859.98C834.05 859.98 834.344 877.85 834.344 899.888C834.344 921.925 834.023 939.769 833.649 939.769Z" fill="#263238"/>
<path d="M847.54 939.769C847.166 939.769 846.845 921.898 846.845 899.888C846.845 877.877 847.166 859.98 847.54 859.98C847.914 859.98 848.234 877.85 848.234 899.888C848.234 921.925 847.914 939.769 847.54 939.769Z" fill="#263238"/>
<path d="M861.43 939.769C861.056 939.769 860.735 921.898 860.735 899.888C860.735 877.877 861.056 859.98 861.43 859.98C861.804 859.98 862.124 877.85 862.124 899.888C862.124 921.925 861.831 939.769 861.43 939.769Z" fill="#263238"/>
<path d="M875.347 939.769C874.946 939.769 874.652 921.898 874.652 899.888C874.652 877.877 874.946 859.98 875.347 859.98C875.747 859.98 876.041 877.85 876.041 899.888C876.041 921.925 875.721 939.769 875.347 939.769Z" fill="#263238"/>
<path d="M889.237 939.769C888.836 939.769 888.543 921.898 888.543 899.888C888.543 877.877 888.836 859.98 889.237 859.98C889.638 859.98 889.932 877.85 889.932 899.888C889.932 921.925 889.611 939.769 889.237 939.769Z" fill="#263238"/>
<path d="M903.127 939.769C902.753 939.769 902.433 921.898 902.433 899.888C902.433 877.877 902.753 859.98 903.127 859.98C903.501 859.98 903.822 877.85 903.822 899.888C903.822 921.925 903.501 939.769 903.127 939.769Z" fill="#263238"/>
<path d="M917.017 939.769C916.643 939.769 916.323 921.898 916.323 899.888C916.323 877.877 916.643 859.98 917.017 859.98C917.391 859.98 917.712 877.85 917.712 899.888C917.712 921.925 917.418 939.769 917.017 939.769Z" fill="#263238"/>
<path d="M930.908 939.769C930.534 939.769 930.213 921.898 930.213 899.888C930.213 877.877 930.534 859.98 930.908 859.98C931.282 859.98 931.629 877.85 931.629 899.888C931.629 921.925 931.308 939.769 930.908 939.769Z" fill="#263238"/>
<path d="M944.824 939.769C944.424 939.769 944.13 921.898 944.13 899.888C944.13 877.877 944.424 859.98 944.824 859.98C945.225 859.98 945.519 877.85 945.519 899.888C945.519 921.925 945.198 939.769 944.824 939.769Z" fill="#263238"/>
<path d="M958.715 939.769C958.341 939.769 958.02 921.898 958.02 899.888C958.02 877.877 958.341 859.98 958.715 859.98C959.089 859.98 959.409 877.85 959.409 899.888C959.409 921.925 959.089 939.769 958.715 939.769Z" fill="#263238"/>
<path d="M972.605 939.769C972.231 939.769 971.91 921.898 971.91 899.888C971.91 877.877 972.231 859.98 972.605 859.98C972.979 859.98 973.299 877.85 973.299 899.888C973.299 921.925 973.006 939.769 972.605 939.769Z" fill="#263238"/>
<path d="M986.495 939.769C986.121 939.769 985.801 921.898 985.801 899.888C985.801 877.877 986.121 859.98 986.495 859.98C986.869 859.98 987.19 877.85 987.19 899.888C987.19 921.925 986.896 939.769 986.495 939.769Z" fill="#263238"/>
<path d="M968.358 1004.36H836.962V1109.58H968.358V1004.36Z" fill="white"/>
<path d="M859.533 1037.85L856.461 1033.42H853.096V1037.85H849.356V1021.99H856.221C857.47 1021.96 858.711 1022.2 859.854 1022.71C860.834 1023.11 861.67 1023.8 862.258 1024.69C862.83 1025.61 863.119 1026.67 863.086 1027.76C863.115 1028.84 862.817 1029.9 862.231 1030.8C861.64 1031.68 860.803 1032.35 859.827 1032.75L863.38 1037.85H859.533ZM858.598 1025.7C857.871 1025.17 856.983 1024.92 856.087 1024.98H853.096V1030.51H856.087C856.983 1030.57 857.871 1030.31 858.598 1029.79C858.871 1029.52 859.087 1029.2 859.235 1028.85C859.382 1028.5 859.458 1028.13 859.458 1027.74C859.458 1027.36 859.382 1026.99 859.235 1026.64C859.087 1026.28 858.871 1025.97 858.598 1025.7Z" fill="#263238"/>
<path d="M867.547 1048.81L863.914 1043.6L860.361 1048.81H856.381L861.937 1041.17L856.595 1033.79H860.548L863.994 1038.66L867.387 1033.79H871.153L865.811 1041.03L871.393 1048.81H867.547Z" fill="#263238"/>
<path d="M958.715 1021.96H883.681V1033.37H958.715V1021.96Z" fill="#E0E0E0"/>
<path d="M950.194 1061.68C950.194 1062.06 928.29 1062.38 901.257 1062.38C874.225 1062.38 852.321 1062.06 852.321 1061.68C852.321 1061.31 874.225 1060.99 901.257 1060.99C928.29 1060.99 950.194 1061.41 950.194 1061.68Z" fill="#263238"/>
<path d="M950.194 1073.54C950.194 1073.94 928.29 1074.24 901.257 1074.24C874.225 1074.24 852.321 1073.94 852.321 1073.54C852.321 1073.14 874.225 1072.85 901.257 1072.85C928.29 1072.85 950.194 1073.17 950.194 1073.54Z" fill="#263238"/>
<path d="M895.942 1088.42H845.242V1098.2H895.942V1088.42Z" fill="#E0E0E0"/>
<path d="M965.366 1106.32C965.366 1106.32 965.366 1105.68 965.366 1104.45C965.366 1103.22 965.366 1101.4 965.366 1099.11C965.366 1094.38 965.366 1087.57 965.232 1078.88C965.232 1061.47 965.045 1036.68 964.939 1006.76L965.5 1007.35H839.553C839.392 1007.48 840.862 1006.04 840.247 1006.68V1033.18C840.247 1041.89 840.247 1050.44 840.247 1058.77C840.247 1075.47 840.247 1091.39 840.247 1106.21L839.633 1105.6L930.453 1105.92L956.257 1106.08H963.149H965.553C965.553 1106.08 965.393 1106.08 964.992 1106.08H963.282H956.524L930.854 1106.24L839.606 1106.56H838.992V1105.92C838.992 1091.09 838.992 1075.17 838.992 1058.48C838.992 1050.14 838.992 1041.59 838.992 1032.89V1006.39C838.377 1006.98 839.847 1005.51 839.686 1005.67H965.633H966.221V1006.25C966.221 1036.31 965.98 1061.25 965.927 1078.75C965.927 1087.35 965.793 1094.14 965.767 1098.84C965.767 1101.08 965.767 1102.82 965.767 1104.18C965.767 1105.54 965.366 1106.32 965.366 1106.32Z" fill="#263238"/>
<path d="M833.649 1196.98C833.249 1196.98 832.955 1142.06 832.955 1074.32C832.955 1006.58 833.249 951.655 833.649 951.655C834.05 951.655 834.344 1006.58 834.344 1074.32C834.344 1142.06 834.023 1196.98 833.649 1196.98Z" fill="white"/>
<path d="M968.491 1219.98C968.491 1220.35 939.829 1220.67 904.383 1220.67C868.936 1220.67 840.274 1220.35 840.274 1219.98C840.274 1219.6 868.936 1219.28 904.383 1219.28C939.829 1219.28 968.491 1219.6 968.491 1219.98Z" fill="#263238"/>
<path d="M1098.71 1225.53H992.933C990.665 1225.53 988.49 1224.64 986.879 1223.04C985.268 1221.45 984.353 1219.28 984.331 1217.01L981.66 931.755H1104.54L1107.07 1216.85C1107.1 1219.11 1106.24 1221.28 1104.67 1222.91C1103.11 1224.53 1100.97 1225.48 1098.71 1225.53Z" fill="#455A64"/>
<g opacity="0.3">
<path d="M1083.14 995.009V1214.69C1083.14 1214.69 1100.45 1220.43 1101.3 1205.29C1102.16 1190.14 1101.68 995.009 1101.68 995.009H1083.14Z" fill="white"/>
</g>
<path d="M1091.55 917.17H994.936C992.811 917.17 990.772 918.015 989.27 919.518C987.767 921.02 986.922 923.059 986.922 925.184V929.965H1099.49V925.184C1099.49 923.072 1098.65 921.046 1097.17 919.546C1095.68 918.045 1093.66 917.191 1091.55 917.17Z" fill="#FAFAFA"/>
<path d="M1091.55 917.17C1091.93 917.118 1092.32 917.118 1092.7 917.17C1093.84 917.267 1094.94 917.633 1095.91 918.239C1097.52 919.217 1098.74 920.716 1099.38 922.486C1099.75 923.615 1099.91 924.8 1099.86 925.985C1099.86 927.241 1099.86 928.656 1099.86 929.939V930.526H1099.51C1078.7 930.74 1039.63 930.874 994.936 930.874H986.228V930.179C986.228 928.149 986.228 926.306 986.228 924.169C986.534 922.072 987.596 920.159 989.215 918.791C990.834 917.423 992.897 916.695 995.016 916.743H1000.68H1022.18L1058.35 916.877L1082.58 917.09L1089.15 917.224C1089.91 917.21 1090.67 917.255 1091.42 917.357C1090.66 917.415 1089.9 917.415 1089.15 917.357L1082.58 917.491L1058.35 917.705L1022.18 917.865H995.15C993.379 917.821 991.653 918.419 990.288 919.548C988.893 920.693 987.986 922.326 987.751 924.115C987.59 925.878 987.751 927.989 987.751 929.939L987.056 929.244H995.07C1039.76 929.244 1078.84 929.378 1099.65 929.591L1099.3 929.939C1099.3 928.55 1099.3 927.267 1099.3 925.985C1099.39 924.867 1099.26 923.743 1098.93 922.673C1098.38 920.986 1097.28 919.534 1095.8 918.559C1094.51 917.768 1093.06 917.292 1091.55 917.17Z" fill="#263238"/>
<path d="M1110.65 927.054H975.89C971.996 927.054 968.839 930.211 968.839 934.106V987.984C968.839 991.878 971.996 995.036 975.89 995.036H1110.65C1114.55 995.036 1117.7 991.878 1117.7 987.984V934.106C1117.7 930.211 1114.55 927.054 1110.65 927.054Z" fill="#FAFAFA"/>
<path d="M1110.63 995.009C1112.04 994.905 1113.41 994.425 1114.58 993.62C1115.93 992.614 1116.88 991.154 1117.25 989.506C1117.42 988.429 1117.46 987.335 1117.38 986.247C1117.38 985.072 1117.38 983.79 1117.38 982.481C1117.38 971.796 1117.25 956.33 1117.17 937.311C1117.17 936.136 1117.17 934.88 1117.17 933.705C1117.1 932.558 1116.72 931.45 1116.07 930.5C1115.41 929.509 1114.49 928.715 1113.42 928.203C1112.34 927.69 1111.14 927.478 1109.96 927.588H1093.72H1057.92H975.89C974.243 927.594 972.661 928.236 971.476 929.381C970.291 930.526 969.595 932.085 969.533 933.732C969.533 937.311 969.533 940.864 969.533 944.417V965.359C969.533 972.233 969.533 978.964 969.533 985.553C969.387 987.108 969.541 988.677 969.987 990.174C970.551 991.548 971.557 992.695 972.845 993.433C974.193 994.103 975.701 994.381 977.199 994.234H981.954L1048.95 994.394L1094.12 994.608H1106.4L1094.12 994.742L1048.95 994.955L981.954 995.116H977.199C975.53 995.413 973.812 995.246 972.231 994.635C970.676 993.748 969.463 992.365 968.785 990.708C968.456 989.855 968.275 988.951 968.251 988.037V985.553C968.251 978.964 968.251 972.233 968.251 965.359V933.839C968.327 931.833 969.175 929.934 970.619 928.54C972.063 927.146 973.99 926.365 975.997 926.359H1058.03H1093.82H1110.06C1111.43 926.29 1112.79 926.57 1114.01 927.173C1115.24 927.776 1116.29 928.682 1117.06 929.805C1117.79 930.914 1118.2 932.196 1118.27 933.518C1118.27 934.8 1118.27 935.975 1118.27 937.178C1118.27 956.196 1118.08 971.609 1118.02 982.347C1118.02 983.656 1118.02 985.019 1118.02 986.114C1118.08 987.231 1118.01 988.351 1117.81 989.453C1117.4 991.2 1116.34 992.726 1114.85 993.727C1113.95 994.34 1112.91 994.725 1111.83 994.849C1111.44 994.973 1111.03 995.028 1110.63 995.009Z" fill="#263238"/>
<path d="M977.573 993.887C977.199 993.887 976.879 979.436 976.879 961.592C976.879 943.749 977.199 929.271 977.573 929.271C977.947 929.271 978.268 943.722 978.268 961.592C978.268 979.463 977.84 993.887 977.573 993.887Z" fill="#263238"/>
<path d="M988.712 993.887C988.338 993.887 988.018 979.436 988.018 961.592C988.018 943.749 988.338 929.271 988.712 929.271C989.086 929.271 989.407 943.722 989.407 961.592C989.407 979.463 989.113 993.887 988.712 993.887Z" fill="#263238"/>
<path d="M999.985 993.887C999.584 993.887 999.29 979.436 999.29 961.592C999.29 943.749 999.584 929.271 999.985 929.271C1000.39 929.271 1000.68 943.722 1000.68 961.592C1000.68 979.463 1000.36 993.887 999.985 993.887Z" fill="#263238"/>
<path d="M1011.23 993.887C1010.86 993.887 1010.54 979.436 1010.54 961.592C1010.54 943.749 1010.86 929.271 1011.23 929.271C1011.6 929.271 1011.92 943.722 1011.92 961.592C1011.92 979.463 1011.63 993.887 1011.23 993.887Z" fill="#263238"/>
<path d="M1022.5 993.887C1022.1 993.887 1021.81 979.436 1021.81 961.592C1021.81 943.749 1022.1 929.271 1022.5 929.271C1022.9 929.271 1023.2 943.722 1023.2 961.592C1023.2 979.463 1022.98 993.887 1022.5 993.887Z" fill="#263238"/>
<path d="M1033.67 993.887C1033.29 993.887 1032.97 979.436 1032.97 961.592C1032.97 943.749 1033.29 929.271 1033.67 929.271C1034.04 929.271 1034.36 943.722 1034.36 961.592C1034.36 979.463 1034.15 993.887 1033.67 993.887Z" fill="#263238"/>
<path d="M1045.02 993.887C1044.62 993.887 1044.33 979.436 1044.33 961.592C1044.33 943.749 1044.62 929.271 1045.02 929.271C1045.42 929.271 1045.72 943.722 1045.72 961.592C1045.72 979.463 1045.39 993.887 1045.02 993.887Z" fill="#263238"/>
<path d="M1056.27 993.887C1055.89 993.887 1055.57 979.436 1055.57 961.592C1055.57 943.749 1055.89 929.271 1056.27 929.271C1056.64 929.271 1056.96 943.722 1056.96 961.592C1056.96 979.463 1056.64 993.887 1056.27 993.887Z" fill="#263238"/>
<path d="M1067.54 993.887C1067.14 993.887 1066.82 979.436 1066.82 961.592C1066.82 943.749 1067.14 929.271 1067.54 929.271C1067.94 929.271 1068.23 943.722 1068.23 961.592C1068.23 979.463 1067.91 993.887 1067.54 993.887Z" fill="#263238"/>
<path d="M1078.78 993.887C1078.41 993.887 1078.09 979.436 1078.09 961.592C1078.09 943.749 1078.41 929.271 1078.78 929.271C1079.16 929.271 1079.48 943.722 1079.48 961.592C1079.48 979.463 1079.08 993.887 1078.78 993.887Z" fill="#263238"/>
<path d="M1090.03 993.887C1089.66 993.887 1089.34 979.436 1089.34 961.592C1089.34 943.749 1089.66 929.271 1090.03 929.271C1090.4 929.271 1090.72 943.722 1090.72 961.592C1090.72 979.463 1090.43 993.887 1090.03 993.887Z" fill="#263238"/>
<path d="M1101.3 993.887C1100.9 993.887 1100.61 979.436 1100.61 961.592C1100.61 943.749 1100.9 929.271 1101.3 929.271C1101.7 929.271 1102 943.722 1102 961.592C1102 979.463 1101.68 993.887 1101.3 993.887Z" fill="#263238"/>
<path d="M1112.55 993.887C1112.17 993.887 1111.85 979.436 1111.85 961.592C1111.85 943.749 1112.17 929.271 1112.55 929.271C1112.92 929.271 1113.24 943.722 1113.24 961.592C1113.24 979.463 1112.95 993.887 1112.55 993.887Z" fill="#263238"/>
<path d="M1097.86 1046.22H991.41V1131.45H1097.86V1046.22Z" fill="white"/>
<path d="M1009.63 1073.36L1007.17 1069.78H1004.5V1073.36H1001.61V1060.51H1006.96C1007.97 1060.48 1008.98 1060.67 1009.92 1061.07C1010.71 1061.41 1011.38 1061.97 1011.84 1062.7C1012.3 1063.44 1012.54 1064.3 1012.54 1065.17C1012.54 1066.04 1012.3 1066.89 1011.84 1067.64C1011.37 1068.35 1010.69 1068.9 1009.89 1069.21L1012.78 1073.36H1009.63ZM1008.88 1063.5C1008.29 1063.09 1007.57 1062.89 1006.85 1062.94H1004.42V1067.4H1006.96C1007.68 1067.45 1008.4 1067.24 1008.99 1066.81C1009.22 1066.61 1009.41 1066.35 1009.53 1066.07C1009.65 1065.78 1009.7 1065.47 1009.68 1065.15C1009.7 1064.84 1009.64 1064.52 1009.51 1064.24C1009.38 1063.95 1009.18 1063.7 1008.93 1063.5H1008.88Z" fill="#263238"/>
<path d="M1016.2 1082.22L1013.26 1078L1010.38 1082.22H1007.14L1011.63 1076.03L1007.36 1070.07H1010.56L1013.23 1074L1015.9 1070.07H1018.95L1014.97 1075.92L1019.48 1082.22H1016.2Z" fill="#263238"/>
<path d="M1090.03 1060.48H1029.26V1069.72H1090.03V1060.48Z" fill="#E0E0E0"/>
<path d="M1083.14 1092.64C1083.14 1093.04 1065.4 1093.34 1043.5 1093.34C1021.59 1093.34 1003.86 1093.04 1003.86 1092.64C1003.86 1092.24 1021.59 1091.95 1043.5 1091.95C1065.4 1091.95 1083.14 1092.27 1083.14 1092.64Z" fill="#263238"/>
<path d="M1083.14 1102.28C1083.14 1102.66 1065.4 1102.98 1043.5 1102.98C1021.59 1102.98 1003.86 1102.66 1003.86 1102.28C1003.86 1101.91 1021.59 1101.59 1043.5 1101.59C1065.4 1101.59 1083.14 1101.88 1083.14 1102.28Z" fill="#263238"/>
<path d="M1039.2 1114.3H998.115V1122.21H1039.2V1114.3Z" fill="#E0E0E0"/>
<path d="M1095.43 1128.84C1095.43 1128.84 1095.43 1128.27 1095.43 1127.29C1095.43 1126.3 1095.43 1124.78 1095.43 1122.96C1095.43 1119.09 1095.43 1113.56 1095.29 1106.56C1095.29 1092.43 1095.11 1072.37 1095 1048.17L1095.56 1048.75H993.547L994.241 1048.06V1058.74C994.241 1062.35 994.241 1065.9 994.241 1069.43V1090.16C994.241 1103.67 994.241 1116.55 994.241 1128.6L993.627 1127.95L1067.17 1128.27L1088.11 1128.43H1093.69H1095.13H1095.64H1093.82H1088.48L1067.67 1128.6L993.734 1128.92H993.093V1128.3C993.093 1116.25 993.093 1103.38 993.093 1089.86V1047.66C992.479 1048.27 993.948 1046.8 993.814 1046.96H1095.83H1096.41V1048.06C1096.41 1072.39 1096.17 1092.61 1096.12 1106.82C1096.12 1113.77 1095.99 1119.25 1095.96 1123.07C1095.96 1124.86 1095.96 1126.27 1095.96 1127.31C1095.83 1127.83 1095.65 1128.34 1095.43 1128.84Z" fill="#263238"/>
<path d="M988.712 1202.27C988.338 1202.27 988.018 1157.76 988.018 1102.9C988.018 1048.03 988.338 1003.53 988.712 1003.53C989.086 1003.53 989.407 1048.01 989.407 1102.9C989.407 1157.79 989.113 1202.27 988.712 1202.27Z" fill="white"/>
<path d="M1097.96 1220.88C1097.96 1221.29 1074.72 1221.58 1046.09 1221.58C1017.45 1221.58 994.242 1221.29 994.242 1220.88C994.242 1220.48 1017.45 1220.19 1046.09 1220.19C1074.72 1220.19 1097.96 1220.51 1097.96 1220.88Z" fill="#263238"/>
<path d="M243.824 1111.45L226.114 1174.35C226.114 1174.35 282.556 1213.94 280.392 1225.88L160.189 1194.97L183.882 1095.82L243.824 1111.45Z" fill="#455A64"/>
<path d="M190.213 1159.47C188.954 1159.56 187.771 1160.1 186.889 1161.01C186.006 1161.91 185.488 1163.1 185.431 1164.36C185.436 1165.62 185.923 1166.83 186.792 1167.75C187.661 1168.66 188.847 1169.21 190.106 1169.28C191.444 1169.2 192.706 1168.63 193.641 1167.67C194.576 1166.71 195.116 1165.43 195.154 1164.1C194.914 1161.56 192.163 1158.91 189.812 1159.53" fill="#E0E0E0"/>
<g opacity="0.6">
<path d="M160.189 1194.97L162.86 1185.09L277.133 1218.35C277.133 1218.35 281.915 1222.09 280.366 1225.8L160.189 1194.97Z" fill="white"/>
</g>
<path d="M228.224 1174.22C228.037 1174.83 225.045 1174.22 221.679 1175.53C218.314 1176.84 216.15 1178.87 215.669 1178.49C215.188 1178.12 216.925 1174.86 221.012 1173.5C225.099 1172.14 228.464 1173.6 228.224 1174.22Z" fill="#263238"/>
<path d="M239.523 1182.79C239.523 1183.43 236.852 1183.78 234.181 1185.84C231.509 1187.9 230.334 1190.41 229.746 1190.22C229.159 1190.03 229.746 1186.56 232.925 1184.1C236.104 1181.65 239.657 1182.23 239.523 1182.79Z" fill="#263238"/>
<path d="M242.996 1200.1C242.435 1200.1 242.354 1196.9 244.652 1193.99C246.949 1191.07 249.994 1190.46 250.154 1191.02C250.315 1191.58 248.151 1192.92 246.281 1195.35C244.411 1197.78 243.503 1200.32 242.996 1200.1Z" fill="#263238"/>
<path d="M230.708 1159.45C230.307 1159.93 227.823 1158.41 224.457 1157.79C221.092 1157.18 218.234 1157.58 218.047 1156.96C217.86 1156.35 220.878 1154.88 224.831 1155.65C228.785 1156.43 231.109 1159.05 230.708 1159.45Z" fill="#263238"/>
<path d="M201.672 1126.27L199.001 1191.66C199.001 1191.66 263.11 1216.53 263.59 1228.68L139.62 1227.7L139.888 1125.6L201.672 1126.27Z" fill="#455A64"/>
<path d="M160.589 1185.87C159.382 1186.24 158.354 1187.05 157.7 1188.13C157.045 1189.21 156.81 1190.5 157.037 1191.74C157.318 1192.97 158.067 1194.04 159.125 1194.72C160.182 1195.41 161.465 1195.65 162.7 1195.4C163.981 1195 165.07 1194.14 165.759 1192.99C166.449 1191.84 166.691 1190.47 166.439 1189.15C166.013 1187.92 165.12 1186.9 163.951 1186.31C162.783 1185.73 161.432 1185.63 160.189 1186.03" fill="#E0E0E0"/>
<g opacity="0.6">
<path d="M139.487 1227.7L139.914 1217.41L258.622 1222.19C258.622 1222.19 264.125 1224.7 263.457 1228.68L139.487 1227.7Z" fill="white"/>
</g>
<path d="M200.898 1191.05C200.898 1191.66 197.852 1191.93 194.834 1193.88C191.816 1195.83 190.24 1198.45 189.679 1198.21C189.118 1197.97 190.053 1194.39 193.739 1192.06C197.425 1189.74 201.031 1190.46 200.898 1191.05Z" fill="#263238"/>
<path d="M213.853 1196.66C213.853 1197.24 211.369 1198.29 209.285 1200.9C207.202 1203.52 206.614 1206.25 206 1206.25C205.385 1206.25 205.038 1202.69 207.682 1199.52C210.327 1196.34 213.853 1196.07 213.853 1196.66Z" fill="#263238"/>
<path d="M221.118 1212.66C220.558 1212.79 219.756 1209.69 221.332 1206.3C222.908 1202.91 225.74 1201.57 226.007 1202.11C226.274 1202.64 224.484 1204.43 223.336 1207.21C222.187 1209.99 221.626 1212.6 221.118 1212.66Z" fill="#263238"/>
<path d="M199.909 1176.06C199.669 1176.62 196.891 1175.74 193.472 1176.06C190.053 1176.38 187.355 1177.37 187.061 1176.84C186.767 1176.3 189.331 1174.17 193.365 1173.9C197.398 1173.63 200.256 1175.58 199.909 1176.06Z" fill="#263238"/>
<path d="M124.982 647.674V699.388L138.525 900.849C138.525 900.849 130.084 998.588 124.902 1053.78C120.415 1101.67 127.76 1185.12 127.76 1185.12H206.667L234.982 906.86L252.505 733.232L283.063 654.325L124.982 647.674Z" fill="#263238"/>
<path d="M332.774 656.676L317.655 937.765L237.84 1148.23L234.154 1160.89L187.034 1149.22L222.08 651.2L332.774 656.676Z" fill="#263238"/>
<path d="M252.238 735.369C252.267 735.76 252.267 736.153 252.238 736.544C252.238 737.399 252.238 738.521 252.238 739.963C252.238 743.062 252.024 747.496 251.837 753.159C251.517 764.592 250.715 781.127 249.593 801.561C247.216 842.43 242.782 898.819 235.837 960.898C228.892 1022.98 221.492 1079.02 215.99 1119.57C213.319 1139.76 210.941 1156.14 209.365 1167.65C208.564 1173.26 207.923 1177.64 207.495 1180.68C207.255 1182.13 207.095 1183.35 206.961 1184.08C206.916 1184.47 206.836 1184.85 206.721 1185.22V1184.05C206.721 1183.22 206.961 1182.1 207.121 1180.66C207.495 1177.58 208.03 1173.2 208.724 1167.57C210.167 1156.16 212.277 1139.76 214.895 1119.49C220.237 1078.91 227.476 1022.87 234.314 960.791C241.152 898.712 245.827 842.43 248.471 801.588C249.727 781.18 250.689 764.645 251.143 753.213C251.437 747.55 251.65 743.142 251.81 740.044C251.81 738.601 251.971 737.372 252.024 736.624C252.049 736.199 252.121 735.778 252.238 735.369Z" fill="#455A64"/>
<path d="M257.233 665.063C257.212 665.861 256.956 666.636 256.497 667.289C256.039 667.943 255.397 668.446 254.654 668.737C253.91 669.028 253.098 669.094 252.317 668.925C251.537 668.757 250.823 668.362 250.266 667.79C249.709 667.218 249.333 666.494 249.185 665.71C249.036 664.925 249.123 664.115 249.433 663.379C249.743 662.643 250.263 662.015 250.929 661.574C251.594 661.132 252.374 660.896 253.173 660.896C253.714 660.9 254.249 661.01 254.747 661.222C255.245 661.434 255.696 661.743 256.074 662.131C256.452 662.519 256.749 662.977 256.948 663.481C257.147 663.984 257.244 664.522 257.233 665.063Z" fill="#455A64"/>
<path d="M326.604 704.33C324.503 702.827 322.632 701.027 321.048 698.987C316.967 694.161 313.619 688.761 311.111 682.96C308.587 677.168 306.914 671.041 306.143 664.769C305.695 662.193 305.632 659.564 305.956 656.969C306.196 656.969 306.356 659.934 307.158 664.636C308.235 670.729 310.029 676.673 312.5 682.346C314.985 687.98 318.132 693.297 321.876 698.186C324.707 702.032 326.764 704.143 326.604 704.33Z" fill="#455A64"/>
<path d="M317.175 394.097C317.175 394.097 332.267 400.028 339.265 422.145C344.127 437.531 366.885 552.072 366.885 552.072L335.152 572.987L322.25 465.739L317.175 394.097Z" fill="#E0E0E0"/>
<path d="M196.49 339.391L186.553 357.021C186.553 357.021 120.121 390.785 120.361 394.097C120.361 394.097 124.074 520.124 124.769 612.574C125.036 647.487 123.754 679.568 123.059 694.981C121.216 735.449 119.773 892.649 119.773 892.649L360.181 886.959L317.175 394.097L283.25 379.272L278.923 370.431L263.35 357.769L196.49 339.391Z" fill="#E0E0E0"/>
<path d="M301.762 888.268C301.797 887.913 301.797 887.555 301.762 887.2C301.762 886.425 301.762 885.383 301.628 884.074C301.468 881.216 301.254 877.156 300.96 871.974C300.346 861.422 299.438 846.25 298.289 827.579C296.019 790.022 292.947 738.254 289.448 681.064C285.948 623.873 283.17 572.106 281.007 534.522C280.018 515.824 279.19 500.678 278.629 490.1C278.335 484.918 278.122 480.885 277.961 478.026C277.961 476.717 277.801 475.676 277.748 474.901C277.727 474.542 277.683 474.185 277.614 473.833C277.584 474.188 277.584 474.546 277.614 474.901C277.614 475.676 277.614 476.717 277.614 478.053C277.614 480.885 277.828 484.945 278.015 490.127C278.389 500.625 279.057 515.824 279.938 534.575C281.701 571.972 284.533 623.927 287.952 681.17C291.371 738.414 294.683 790.155 297.221 827.632C298.503 846.33 299.571 861.449 300.293 872.027C300.693 877.183 301.014 881.243 301.228 884.074L301.495 887.226C301.544 887.582 301.634 887.932 301.762 888.268Z" fill="#263238"/>
<path d="M263.35 357.769L268.933 396.368L278.923 473.833L235.383 399.093L197.585 349.569L259.877 393.216L260.652 357.048" fill="#025464"/>
<path d="M186.259 359.372C186.563 360.414 186.965 361.425 187.461 362.39C188.396 364.501 189.625 367.305 191.174 370.751L204.691 400.134L204.851 400.508H205.278H214.36L213.933 399.28L207.255 404.756L206.641 405.263L207.202 405.824L219.863 418.218L260.599 457.725L273.046 469.559L276.492 472.737C276.869 473.133 277.29 473.482 277.748 473.779C277.454 473.311 277.094 472.889 276.679 472.524L273.447 469.158L261.293 456.977L220.878 417.177C216.524 412.903 212.25 408.762 208.19 404.809V405.851L214.841 400.348L216.31 399.119H214.387H205.305L205.893 399.493C200.203 387.633 195.395 377.59 191.896 370.324C190.213 366.931 188.877 364.18 187.862 362.123C187.401 361.166 186.865 360.246 186.259 359.372Z" fill="#263238"/>
<path d="M278.923 473.752C279.338 472.174 279.633 470.567 279.805 468.944C280.285 465.605 280.9 461.171 281.648 455.802C283.144 444.69 285.12 429.331 287.204 412.368L289.127 396.555V395.941L288.513 395.78L277.587 393.109V394.391L288.539 392.441L289.287 392.308L288.967 391.64L281.755 375.96C280.926 374.277 280.259 372.862 279.698 371.713C279.499 371.192 279.219 370.705 278.87 370.27C278.981 370.816 279.161 371.345 279.404 371.846C279.885 373.022 280.472 374.518 281.167 376.227C282.876 380.234 285.174 385.603 287.925 392.094L288.352 391.319L277.374 393.109L274.222 393.617L277.32 394.391L288.219 397.062L287.685 396.315C287.043 401.336 286.402 406.652 285.708 412.101C283.624 429.09 281.808 444.449 280.579 455.588C280.018 460.931 279.537 465.445 279.19 468.944C278.977 470.538 278.887 472.145 278.923 473.752Z" fill="#263238"/>
<path d="M241.767 679.995H240.218L235.596 680.289L217.86 681.571L154.339 686.459H153.698V687.101C154.713 699.041 155.835 712.023 157.01 725.699C157.598 732.573 158.203 739.598 158.826 746.775C159.147 750.381 159.441 753.987 159.761 757.647C159.873 759.541 160.168 761.419 160.643 763.256C161.206 765.153 162.053 766.954 163.154 768.599C166.749 773.451 172.116 776.687 178.086 777.601C183.703 778.297 189.362 778.6 195.021 778.509C205.704 778.538 216.357 777.373 226.781 775.036C229.254 774.438 231.674 773.643 234.02 772.659C235.189 772.186 236.315 771.614 237.386 770.949C237.929 770.586 238.439 770.175 238.909 769.72C239.34 769.247 239.741 768.748 240.111 768.225C242.388 764.035 243.796 759.429 244.251 754.682C245.303 746.347 245.723 737.944 245.506 729.546C245.266 714.16 244.171 701.765 243.343 693.218C242.942 688.944 242.541 685.658 242.248 683.414C242.248 682.346 241.98 681.518 241.9 680.743C241.885 680.45 241.822 680.161 241.713 679.888C241.713 679.888 241.713 680.182 241.713 680.77C241.713 681.357 241.713 682.266 241.927 683.441C242.141 685.792 242.408 689.077 242.755 693.271C243.423 701.819 244.358 714.213 244.465 729.546C244.586 737.885 244.113 746.223 243.049 754.495C242.576 759.055 241.205 763.476 239.015 767.503C237.635 769.383 235.687 770.769 233.459 771.457C231.182 772.401 228.833 773.16 226.434 773.727C216.11 776.005 205.566 777.133 194.994 777.093C189.424 777.176 183.854 776.873 178.326 776.185C172.727 775.334 167.688 772.311 164.302 767.771C163.319 766.281 162.546 764.663 162.005 762.962C161.563 761.211 161.286 759.423 161.177 757.62C160.856 753.96 160.536 750.328 160.242 746.722C159.601 739.563 158.987 732.511 158.372 725.673C157.143 711.969 155.995 698.961 154.926 687.074L154.365 687.768L217.432 682.266L235.276 680.636L240.031 680.182C240.613 680.16 241.193 680.098 241.767 679.995Z" fill="#263238"/>
<g opacity="0.3">
<path d="M160.776 761.547C167.561 779.23 185.271 780.245 204.343 777.574C222.267 774.903 239.523 771.19 240.859 766.061C240.378 775.437 233.486 782.622 224.831 786.389C216.044 789.747 206.61 791.071 197.238 790.262C187.435 789.808 178.967 790.262 170.873 784.679C162.78 779.096 160.75 769.614 160.776 761.547Z" fill="black"/>
</g>
<path d="M342.604 685.471C342.581 685.249 342.581 685.025 342.604 684.803L342.364 682.88C342.186 681.099 341.919 678.615 341.562 675.427C340.921 668.803 340.013 659.4 338.891 647.968C336.701 624.782 333.763 592.727 330.664 557.334C327.565 521.941 324.894 489.86 323.105 466.513C322.223 454.894 321.582 445.491 321.208 439C320.994 435.741 320.914 433.23 320.861 431.494C320.861 430.72 320.861 430.078 320.861 429.544C320.822 429.323 320.822 429.097 320.861 428.876C321.502 436.409 325.963 487.456 332.053 557.094C335.098 592.46 337.876 624.461 339.88 647.781C340.815 659.293 341.589 668.643 342.123 675.267C342.364 678.419 342.551 680.93 342.684 682.746C342.684 683.521 342.684 684.162 342.684 684.696C342.696 684.957 342.669 685.218 342.604 685.471Z" fill="#263238"/>
<path d="M377.437 554.609C378.462 558.31 378.842 562.159 378.559 565.989C377.998 571.839 377.73 586.21 362.157 591.125C346.584 596.04 339.025 591.338 334.243 584.74L331.866 556.159L348.534 545.153L377.437 554.609Z" fill="#E0E0E0"/>
<g opacity="0.3">
<path d="M247.323 572.987C247.323 572.987 207.495 612.334 176.563 617.997C145.631 623.66 134.572 612.654 126.345 584.954L247.323 572.987Z" fill="black"/>
</g>
<path d="M121.082 393.136C121.082 393.136 95.7861 416.589 102.998 472.123C109.676 523.73 121.697 595.586 137.403 603.946C153.11 612.307 187.435 608.113 212.464 593.929C237.493 579.745 310.016 541.387 310.016 541.387L279.992 487.963L183.268 525.36C183.268 525.36 170.767 439.882 163.26 425.03" fill="#E0E0E0"/>
<path d="M162.86 424.042C162.86 424.042 163.127 424.602 163.608 425.698C163.821 426.232 164.142 426.9 164.463 427.728C164.783 428.556 165.05 429.571 165.424 430.666C166.84 435.1 168.523 441.752 170.366 450.406C174.106 467.689 178.62 492.905 183.375 524.318L182.68 523.891L279.35 486.227L279.885 486.013L280.179 486.521C289.661 503.403 299.758 521.246 310.229 539.945L310.577 540.586L309.936 540.933L247.911 574.35L217.486 590.724C212.491 593.395 207.522 596.2 202.367 598.417C197.223 600.591 191.94 602.42 186.553 603.893C176.061 606.832 165.171 608.094 154.285 607.633C148.979 607.397 143.75 606.268 138.819 604.294L137.003 603.492C136.415 603.198 135.854 602.771 135.266 602.397C134.274 601.555 133.378 600.605 132.595 599.566C131.005 597.516 129.635 595.304 128.508 592.968C124.341 583.984 121.084 574.606 118.785 564.974C116.354 555.705 114.431 546.596 112.695 537.754C109.276 520.098 106.738 503.536 104.681 488.391C102.624 473.245 100.674 459.462 101.235 447.254C101.499 436.821 103.355 426.489 106.738 416.616C108.931 410.396 112.017 404.53 115.9 399.199C116.92 397.822 118.027 396.51 119.213 395.273C119.618 394.858 120.046 394.465 120.495 394.097L119.319 395.38C118.187 396.647 117.126 397.976 116.141 399.36C112.38 404.729 109.395 410.601 107.272 416.803C103.958 426.633 102.157 436.91 101.93 447.281C101.449 459.408 103.372 473.111 105.563 488.23C107.753 503.349 110.344 519.911 113.817 537.541C115.553 546.329 117.503 555.411 119.96 564.653C122.248 574.192 125.478 583.48 129.603 592.38C130.682 594.613 131.98 596.734 133.477 598.711C134.266 599.697 135.162 600.593 136.148 601.382C136.641 601.731 137.159 602.043 137.697 602.317L139.407 603.092C144.217 604.973 149.31 606.029 154.472 606.217C165.206 606.656 175.942 605.403 186.286 602.504C191.595 601.059 196.806 599.275 201.886 597.161C207.015 594.944 211.876 592.193 216.898 589.522L247.323 573.121L309.375 539.731L309.081 540.692L279.11 487.269L279.938 487.562L183.161 524.959L182.546 525.2V524.559C177.925 493.172 173.571 467.929 170.019 450.62C168.282 441.965 166.68 435.287 165.344 430.853C165.023 429.758 164.73 428.77 164.463 427.915L163.688 425.858C163.154 424.629 162.86 424.042 162.86 424.042Z" fill="#263238"/>
<path d="M197.585 488.043H245.587V472.07H197.585V488.043Z" fill="white"/>
<path d="M207.522 479.095C212.474 478.375 217.483 478.134 222.481 478.374C227.487 478.133 232.506 478.375 237.466 479.095C232.503 479.781 227.487 480.014 222.481 479.789C217.484 480.013 212.477 479.781 207.522 479.095Z" fill="#263238"/>
<g opacity="0.3">
<path d="M276.492 472.791L205.839 415.467L207.522 410.472H201.378L191.174 370.751L205.866 399.6L214.36 399.199L208.19 404.862L276.492 472.791Z" fill="black"/>
</g>
<path d="M189.224 407.453L191.896 406.385C191.896 406.251 186.099 392.441 180.41 377.803C178.366 373.305 177.537 368.35 178.005 363.432C178.326 361.885 179.182 360.501 180.423 359.523C181.665 358.546 183.211 358.038 184.79 358.09L186.66 357.102L187.622 355.392C182.68 354.323 176.055 358.464 175.254 363.032C174.733 368.463 175.655 373.937 177.925 378.898C183.401 393.617 189.144 407.32 189.224 407.453Z" fill="#455A64"/>
<path d="M185.057 439.721L188.61 438.332C185.698 430.826 181.718 417.551 183.428 413.811C184.271 412.476 185.388 411.336 186.705 410.465C188.022 409.595 189.509 409.014 191.068 408.762C192.975 408.258 194.974 408.204 196.907 408.602C198.84 409.001 200.654 409.842 202.206 411.06C206.267 414.505 212.41 426.633 214.44 431.04L217.886 429.437C217.593 428.77 210.22 412.823 204.664 408.068C202.665 406.468 200.321 405.355 197.817 404.817C195.314 404.28 192.719 404.332 190.24 404.969C188.087 405.342 186.046 406.197 184.27 407.468C182.494 408.74 181.028 410.397 179.982 412.315C177.097 418.512 183.695 436.356 185.057 439.721Z" fill="#455A64"/>
<path d="M223.416 497.633C227.796 497.633 232.124 495.282 236.264 490.634L234.822 489.352C230.281 494.508 225.579 496.538 220.931 495.443C201.939 490.982 187.461 438.226 187.328 437.691L185.485 438.172C186.099 440.389 200.39 492.584 220.477 497.286C221.439 497.52 222.426 497.636 223.416 497.633Z" fill="#263238"/>
<path d="M232.605 492.798C232.991 493.184 233.503 493.418 234.047 493.458C234.592 493.497 235.132 493.339 235.57 493.012L239.683 489.94C239.99 489.748 240.255 489.496 240.462 489.198C240.668 488.901 240.812 488.564 240.884 488.21C240.957 487.855 240.956 487.489 240.883 487.134C240.81 486.78 240.665 486.444 240.458 486.147C240.24 485.804 239.946 485.516 239.6 485.304C239.253 485.092 238.863 484.961 238.459 484.923C238.054 484.884 237.647 484.938 237.266 485.081C236.886 485.223 236.543 485.451 236.264 485.746L232.551 489.593C232.134 490.025 231.906 490.606 231.916 491.206C231.926 491.807 232.173 492.38 232.605 492.798Z" fill="#263238"/>
<path d="M215.349 499.369C217.82 499.559 220.3 499.128 222.562 498.115C224.825 497.103 226.798 495.542 228.304 493.573C239.977 477.198 217.966 431.735 217.032 429.811L215.322 430.639C215.536 431.12 237.787 477.011 226.755 492.477C223.87 496.511 218.741 498.114 211.743 497.232L211.502 499.102C212.777 499.279 214.062 499.369 215.349 499.369Z" fill="#263238"/>
<path d="M215.696 498.327C215.659 498.87 215.429 499.382 215.046 499.77C214.664 500.157 214.155 500.394 213.612 500.438L208.484 500.865C208.128 500.921 207.765 500.906 207.417 500.818C207.068 500.731 206.74 500.574 206.453 500.357C206.166 500.14 205.926 499.867 205.747 499.555C205.568 499.243 205.454 498.898 205.412 498.541C205.345 498.14 205.371 497.729 205.488 497.339C205.604 496.95 205.808 496.592 206.084 496.293C206.359 495.994 206.7 495.762 207.078 495.615C207.457 495.468 207.865 495.409 208.27 495.442L213.612 495.897C214.208 495.951 214.758 496.235 215.147 496.689C215.536 497.143 215.733 497.731 215.696 498.327Z" fill="#263238"/>
<path d="M307.104 442.553C314.598 442.553 320.674 436.478 320.674 428.983C320.674 421.489 314.598 415.414 307.104 415.414C299.61 415.414 293.534 421.489 293.534 428.983C293.534 436.478 299.61 442.553 307.104 442.553Z" fill="#263238"/>
<path d="M307.104 442.553C314.598 442.553 320.674 436.478 320.674 428.983C320.674 421.489 314.598 415.414 307.104 415.414C299.61 415.414 293.534 421.489 293.534 428.983C293.534 436.478 299.61 442.553 307.104 442.553Z" fill="#263238"/>
<path d="M297.087 428.983C297.082 430.972 297.667 432.918 298.769 434.573C299.87 436.229 301.439 437.521 303.275 438.284C305.111 439.047 307.133 439.249 309.084 438.862C311.034 438.475 312.827 437.518 314.233 436.112C315.639 434.706 316.596 432.914 316.983 430.963C317.37 429.012 317.168 426.99 316.405 425.154C315.641 423.318 314.35 421.749 312.694 420.648C311.038 419.546 309.093 418.961 307.104 418.966C304.447 418.966 301.9 420.022 300.021 421.9C298.143 423.779 297.087 426.327 297.087 428.983Z" fill="#E0E0E0"/>
<path d="M278.309 369.87C279.591 371.713 293.775 401.657 301.521 416.749L303.792 415.574C302.643 413.357 282.022 370.805 280.419 368.427L265.407 356.22L264.873 359.078L278.309 369.87Z" fill="#455A64"/>
<path d="M272.619 428.663C282.449 438.466 307.345 463.976 307.345 463.976L313.996 459.969L278.95 422.572C278.239 421.814 277.282 421.334 276.249 421.216C275.217 421.099 274.176 421.352 273.314 421.931C272.774 422.289 272.321 422.761 271.986 423.315C271.651 423.868 271.443 424.489 271.377 425.133C271.31 425.777 271.387 426.427 271.602 427.037C271.817 427.648 272.164 428.203 272.619 428.663Z" fill="#263238"/>
<path d="M279.698 486.868L288.059 463.308C288.926 460.766 290.54 458.545 292.689 456.935C294.838 455.324 297.423 454.399 300.106 454.279H301.361C306.383 454.84 331.946 456.523 331.946 456.523L341.83 467.609C342.643 468.531 343.092 469.718 343.092 470.948C343.092 472.177 342.643 473.364 341.83 474.287L344.688 494.321L339.158 498.167L339.719 512.164C339.719 512.164 334.724 515.476 332.507 514.381L330.263 513.259L326.951 509.92L317.495 523.276L304.433 530.836L279.698 486.868Z" fill="#FFBF9D"/>
<path d="M341.99 475.409C340.873 474.049 339.678 472.756 338.411 471.535C336.988 470.315 335.372 469.34 333.629 468.65C331.359 468.114 329.042 467.801 326.711 467.716C320.574 467.378 314.474 466.556 308.466 465.258C314.61 465.112 320.755 465.451 326.844 466.273C329.294 466.354 331.724 466.73 334.083 467.395C335.956 468.188 337.66 469.33 339.105 470.761C340.553 471.95 341.567 473.584 341.99 475.409Z" fill="#FF9A6C"/>
<path d="M341.429 493.813C340.857 492.069 340.17 490.364 339.372 488.711C337.091 484.928 333.613 482.014 329.489 480.43C325.292 478.92 320.86 478.169 316.4 478.213C314.529 478.341 312.651 478.287 310.79 478.053C312.598 477.45 314.495 477.161 316.4 477.198C321.022 476.841 325.668 477.478 330.023 479.068C334.455 480.753 338.107 484.016 340.28 488.23C341.283 489.908 341.687 491.876 341.429 493.813Z" fill="#FF9A6C"/>
<path d="M338.918 510.989C337.993 509.305 337.533 507.406 337.582 505.486C337.474 503.517 337.05 501.578 336.327 499.743C335.833 498.691 335.087 497.777 334.155 497.082C333.223 496.388 332.134 495.935 330.985 495.763C326.581 494.82 322.119 494.178 317.629 493.84C315.721 493.763 313.846 493.328 312.099 492.558C313.982 492.513 315.865 492.602 317.735 492.825C322.308 492.862 326.864 493.372 331.332 494.347C332.678 494.682 333.947 495.272 335.072 496.084C336.117 496.9 336.927 497.978 337.422 499.209C338.152 501.192 338.505 503.294 338.464 505.406C338.598 508.879 339.158 510.909 338.918 510.989Z" fill="#FF9A6C"/>
<path d="M352.862 466.807L242.595 580.68L246.842 584.981L325.829 576.086L432.116 474.821L432.009 469.959L352.862 466.807Z" fill="#455A64"/>
<g opacity="0.3">
<path d="M373.51 519.911C370.912 517.541 367.847 515.742 364.511 514.628C361.176 513.515 357.644 513.112 354.144 513.446C347.132 514.165 340.492 516.955 335.072 521.46C330.481 524.823 327.136 529.614 325.562 535.083C323.318 544.646 331.198 558.029 339.88 562.676C350.885 553.835 361.596 540.265 372.602 531.45C374.387 530.295 375.732 528.574 376.422 526.562C376.514 525.3 376.297 524.035 375.79 522.875C375.283 521.716 374.5 520.699 373.51 519.911Z" fill="black"/>
</g>
<path d="M431.689 474.607C431.208 474.641 430.726 474.641 430.246 474.607H426.026L410.212 474.42L355.186 473.459L355.693 473.245L328.073 501.907L270.776 560.86L253.306 578.597L248.498 583.378C247.956 583.95 247.376 584.486 246.762 584.981C247.233 584.363 247.761 583.791 248.338 583.271L252.959 578.303L270.108 560.246C284.773 544.993 304.834 524.078 327.085 500.999C336.835 490.901 346.21 481.232 354.758 472.417L354.972 472.203H355.186L410.132 473.779L425.919 474.34L430.139 474.554C430.656 474.515 431.176 474.533 431.689 474.607Z" fill="#263238"/>
<path d="M362.665 507.997C362.665 507.997 373.35 508.211 376.849 509.947C380.348 511.683 389.911 521.834 389.911 521.834C389.911 521.834 389.911 528.779 387.24 529.046C387.581 530.6 387.769 532.184 387.801 533.774C388.068 537.674 388.629 539.891 383.34 543.23C383.34 543.23 383.901 549.614 381.951 551.244C380.633 552.352 379.24 553.369 377.784 554.289C377.784 554.289 377.49 561.314 368.061 561.234L359.219 565.134C359.219 565.134 339.559 563.291 341.643 560.967C343.726 558.643 348.454 547.13 348.454 547.13C348.454 547.13 335.098 537.327 335.258 534.282C335.419 531.236 336.648 530.943 336.648 530.943C336.648 530.943 336.113 525.119 340.815 524.559C340.815 524.559 344.447 517.32 348.054 517.052C351.66 516.785 376.128 525.654 376.128 525.654L366.966 517.881C366.966 517.881 357.777 516.492 358.07 513.42C358.364 510.348 362.665 507.997 362.665 507.997Z" fill="#FFBF9D"/>
<path d="M361.062 544.619C356.821 542.831 352.675 540.825 348.641 538.609C344.4 536.792 340.254 534.76 336.22 532.519C340.796 533.371 345.205 534.949 349.282 537.193C353.573 539.037 357.549 541.542 361.062 544.619Z" fill="#FF9A6C"/>
<path d="M373.884 536.125C368.404 534.857 363.042 533.123 357.857 530.943C352.53 529.214 347.364 527.024 342.417 524.398C347.897 525.666 353.259 527.4 358.444 529.58C363.771 531.309 368.937 533.499 373.884 536.125Z" fill="#FF9A6C"/>
<path d="M199.776 289.974C196.221 277.86 193.701 265.466 192.243 252.925C190.786 240.324 192.475 227.558 197.158 215.769C197.933 214.006 204.237 202.413 206.106 202.573C207.469 202.76 203.435 213.792 204.023 215.021C210.006 226.614 211.075 240.264 209.365 253.219C207.582 265.785 204.401 278.114 199.883 289.974" fill="#263238"/>
<path d="M201.031 241.813C201.619 210.133 220.558 184.115 252.184 185.718L255.096 186.038C269.261 187.5 282.354 194.249 291.762 204.939C301.169 215.629 306.2 229.474 305.849 243.709C305.181 271.143 304.086 301.434 302.376 316.019C298.823 346.176 268.105 347.699 268.105 347.699L261.106 394.231L196.49 349.302L201.031 241.813Z" fill="#FFBF9D"/>
<path d="M267.998 347.806C254.045 346.29 240.818 340.812 229.88 332.019C229.88 332.019 235.917 357.849 266.342 358.304L267.998 347.806Z" fill="#FF9A6C"/>
<path d="M294.229 268.845C294.12 269.97 293.576 271.008 292.713 271.736C291.849 272.465 290.735 272.827 289.608 272.745C289.055 272.732 288.51 272.607 288.006 272.38C287.501 272.152 287.048 271.826 286.672 271.42C286.296 271.014 286.005 270.537 285.816 270.017C285.628 269.496 285.546 268.944 285.574 268.391C285.683 267.264 286.226 266.224 287.089 265.491C287.952 264.758 289.066 264.39 290.195 264.465C290.75 264.482 291.295 264.609 291.8 264.84C292.304 265.07 292.757 265.399 293.133 265.807C293.509 266.215 293.799 266.694 293.987 267.216C294.176 267.737 294.258 268.291 294.229 268.845Z" fill="#263238"/>
<path d="M297.969 255.436C297.381 255.917 294.363 253.165 289.715 252.765C285.067 252.364 281.434 254.261 280.98 253.646C280.526 253.032 281.407 252.391 283.01 251.483C285.166 250.291 287.642 249.805 290.089 250.094C292.5 250.338 294.772 251.338 296.58 252.952C297.889 254.127 298.262 255.196 297.969 255.436Z" fill="#263238"/>
<path d="M254.508 266.975C254.4 268.102 253.856 269.143 252.994 269.876C252.131 270.609 251.017 270.977 249.887 270.902C249.333 270.885 248.787 270.758 248.283 270.527C247.779 270.297 247.325 269.968 246.95 269.56C246.574 269.152 246.284 268.673 246.095 268.151C245.907 267.629 245.825 267.075 245.854 266.521C245.994 265.419 246.551 264.412 247.41 263.706C248.27 263.001 249.366 262.651 250.475 262.728C251.019 262.742 251.554 262.863 252.051 263.084C252.548 263.305 252.997 263.622 253.372 264.016C253.746 264.411 254.039 264.875 254.234 265.383C254.43 265.891 254.523 266.432 254.508 266.975Z" fill="#263238"/>
<path d="M252.291 252.498C251.704 253.005 248.685 250.254 244.037 249.826C239.389 249.399 235.757 251.322 235.303 250.681C234.848 250.04 235.73 249.452 237.333 248.544C239.489 247.352 241.965 246.867 244.411 247.155C246.822 247.399 249.094 248.4 250.902 250.013C252.211 251.215 252.585 252.284 252.291 252.498Z" fill="#263238"/>
<path d="M265.193 289.948C267.722 289.425 270.308 289.237 272.886 289.387C274.062 289.387 275.21 289.387 275.557 288.479C275.785 287.261 275.636 286.003 275.13 284.872L272.592 275.47C269.066 262.114 266.662 251.162 267.25 251.028C267.838 250.895 271.07 261.713 274.596 275.069C275.424 278.355 276.225 281.507 277 284.499C277.553 286.026 277.553 287.699 277 289.227C276.787 289.624 276.486 289.968 276.121 290.232C275.755 290.496 275.334 290.672 274.89 290.749C274.207 290.837 273.516 290.837 272.833 290.749C270.263 290.796 267.697 290.527 265.193 289.948Z" fill="#263238"/>
<path d="M251.196 291.711C251.944 291.711 251.437 296.786 255.363 300.819C259.29 304.853 264.712 304.853 264.686 305.574C264.659 306.295 263.377 306.429 261.106 306.242C258.152 305.975 255.388 304.669 253.306 302.556C251.297 300.539 250.156 297.816 250.128 294.97C250.154 292.833 250.849 291.657 251.196 291.711Z" fill="#263238"/>
<path d="M254.028 233.639C253.44 234.841 248.872 233.639 243.343 233.853C237.813 234.066 233.272 234.948 232.658 233.853C232.391 233.265 233.299 232.17 235.329 231.182C237.812 229.92 240.558 229.261 243.343 229.258C246.121 229.243 248.864 229.874 251.356 231.101C253.386 231.956 254.295 233.051 254.028 233.639Z" fill="#263238"/>
<path d="M297.675 239.783C296.74 240.744 293.668 239.329 289.822 238.875C285.975 238.42 282.663 238.875 282.022 237.646C281.755 237.085 282.369 236.07 283.891 235.215C285.922 234.198 288.217 233.834 290.463 234.173C292.716 234.399 294.839 235.334 296.526 236.844C297.755 238.18 298.102 239.302 297.675 239.783Z" fill="#263238"/>
<path d="M201.138 264.438C200.63 264.144 181.024 256.104 179.501 276.832C177.979 297.561 199.108 294.809 199.188 294.222C199.268 293.634 201.138 264.438 201.138 264.438Z" fill="#FFBF9D"/>
<path d="M193.418 285.888C193.418 285.888 193.044 286.128 192.403 286.368C191.524 286.649 190.571 286.592 189.732 286.208C187.622 285.246 186.019 281.64 186.179 277.901C186.268 276.12 186.742 274.379 187.568 272.799C187.797 272.144 188.186 271.557 188.699 271.091C189.212 270.624 189.833 270.293 190.507 270.127C190.93 270.043 191.37 270.113 191.746 270.323C192.123 270.534 192.413 270.871 192.563 271.276C192.804 271.864 192.563 272.264 192.75 272.318C192.937 272.371 193.205 271.997 193.098 271.143C193.021 270.619 192.767 270.138 192.376 269.78C192.112 269.545 191.803 269.365 191.468 269.251C191.134 269.136 190.78 269.089 190.426 269.112C189.56 269.21 188.735 269.533 188.032 270.048C187.329 270.564 186.773 271.254 186.42 272.051C185.412 273.776 184.835 275.718 184.737 277.714C184.577 281.907 186.42 285.968 189.358 287.063C189.903 287.265 190.486 287.341 191.064 287.286C191.643 287.23 192.201 287.044 192.697 286.742C193.365 286.395 193.498 285.941 193.418 285.888Z" fill="#FF9A6C"/>
<path d="M294.55 208.343C298.022 206.713 288.646 195.201 280.633 190.927C268.532 184.462 249.727 179.761 237.894 182.272C223.79 185.317 211.849 191.461 204.103 203.642C196.588 216.036 192.504 230.205 192.27 244.698C191.812 249.101 192.541 253.546 194.38 257.573C197.051 262.328 202.393 265.586 201.699 271.89C201.548 273.029 201.623 274.187 201.921 275.296C202.219 276.406 202.734 277.445 203.435 278.355C206.988 282.655 211.849 279.156 214.254 275.497C219.329 267.643 220.451 258 221.466 248.785C222.548 242.231 222.548 235.545 221.466 228.991C220.664 225.465 219.249 222.099 218.795 218.52C218.386 216.758 218.365 214.927 218.734 213.156C219.103 211.385 219.853 209.715 220.931 208.263C221.478 207.683 222.077 207.156 222.721 206.687C225.778 204.354 229.401 202.877 233.218 202.408C237.034 201.938 240.907 202.493 244.438 204.015C255.844 208.904 275.397 216.356 280.873 212.724C288.726 207.515 290.756 203.909 290.756 203.909L294.55 208.343Z" fill="#263238"/>
</svg>
